<?xml version="1.0" encoding="UTF-8" standalone="no"?>
<svg
   width="534"
   height="360"
   viewbox="0 0 534 360"
   fill="rgba(255, 255, 255, 0.4)"
   xmlns="http://www.w3.org/2000/svg"
>
  <path
     d="M 1.65625 0 C 3.2182484 7.2299928 3.6518584 15.886366 2.6308594 22.818359 C 2.1778598 25.703356 1.2269988 27.731627 0 29.265625 L 0 29.667969 C 1.3419987 28.07997 2.3870474 25.953419 2.8730469 22.857422 C 3.8960459 15.915429 3.4681547 7.2479928 1.9101562 0 L 1.65625 0 z M 5.2519531 0 C 7.405951 7.8149922 8.2205927 18.265977 7.1835938 26.292969 C 6.3265946 32.517963 3.2329968 34.797908 0 36.628906 L 0 36.931641 C 3.3339967 35.057642 6.554454 32.765119 7.4394531 26.328125 C 8.4784521 18.294133 7.6675291 7.8399922 5.5195312 0 L 5.2519531 0 z M 8.5585938 0 C 11.575591 8.4109916 12.888233 21.625103 11.615234 30.746094 C 10.642235 37.206087 7.1466216 39.132096 3.765625 40.996094 C 3.4656253 41.160094 3.1651872 41.326141 2.8671875 41.494141 L 2.703125 41.589844 C 1.743126 42.143843 0.69299931 42.749407 0 43.941406 L 0 44.529297 C 0.62999937 43.102298 1.7450323 42.458077 2.8320312 41.830078 L 2.9960938 41.734375 C 3.2910935 41.567375 3.5906253 41.404281 3.890625 41.238281 C 7.3286216 39.344283 10.884907 37.38515 11.878906 30.785156 C 13.151905 21.660165 11.8497 8.4529915 8.8457031 0 L 8.5585938 0 z M 11.529297 0 A 57.635 57.635 0 0 1 13.240234 4.5039062 C 16.010232 13.018898 17.241061 25.661368 16.164062 34.568359 C 15.301063 41.184353 11.872637 43.111611 8.5566406 44.974609 C 8.2686409 45.135609 7.9813122 45.297938 7.6953125 45.460938 L 7.5195312 45.566406 C 6.2085326 46.334405 4.723609 47.206471 4.3496094 49.730469 A 7.29 7.29 0 0 0 4.2714844 50.839844 C 4.2714844 54.34684 6.2008298 59.969193 7.9238281 64.992188 C 8.2498278 65.942187 8.5586565 66.841079 8.8476562 67.705078 C 10.672654 73.344072 12.905455 79.501084 15.064453 85.455078 C 18.11245 93.86007 21.264611 102.55129 23.349609 109.98828 C 24.941608 115.67328 25.756923 120.37965 26.544922 124.93164 C 27.276921 129.16864 28.03497 133.54804 29.417969 138.70703 C 31.576967 146.56702 35.691318 156.33237 41.320312 166.94336 C 51.643302 186.51734 67.060251 209.90349 83.615234 231.10547 C 90.658227 240.17446 104.62255 257.28754 119.01953 270.01953 C 131.23452 280.82152 138.85496 284.31339 144.12695 286.15039 L 144.2168 285.87695 C 138.9668 284.04895 131.37916 280.56882 119.20117 269.79883 C 104.82119 257.08184 90.868024 239.98382 83.832031 230.92383 C 67.287048 209.73385 51.882396 186.36467 41.566406 166.80469 C 35.947412 156.2097 31.839498 146.4679 29.6875 138.62891 C 28.308501 133.48391 27.551312 129.1099 26.820312 124.87891 C 26.032313 120.31991 25.216139 115.60624 23.619141 109.90625 C 21.533143 102.45726 18.378122 93.762507 15.328125 85.353516 C 13.169127 79.400522 10.937279 73.245369 9.1132812 67.609375 C 8.8232815 66.742376 8.5154528 65.844577 8.1894531 64.892578 C 6.282455 59.332584 4.1199536 53.032434 4.6269531 49.773438 C 4.9809528 47.38644 6.3392513 46.587452 7.65625 45.814453 L 7.8359375 45.710938 C 8.1179372 45.548938 8.4044065 45.387562 8.6914062 45.226562 C 12.069403 43.329564 15.56136 41.366509 16.443359 34.603516 C 17.523358 25.657525 16.287857 12.959148 13.505859 4.4101562 A 59.678 59.678 0 0 0 11.841797 0 L 11.529297 0 z M 14.105469 0 C 15.411467 2.6089974 16.719142 5.5562689 17.744141 8.8222656 C 20.476138 17.759257 21.704655 30.882712 20.597656 39.345703 C 19.734657 45.438697 16.573622 47.261439 13.515625 49.023438 C 13.072625 49.278437 12.613828 49.544407 12.173828 49.816406 L 12.134766 49.841797 C 10.978767 50.575796 9.6664684 51.405612 9.3554688 53.724609 C 8.8854692 57.052606 11.117893 63.367506 13.087891 68.9375 C 13.40989 69.849499 13.723625 70.737938 14.015625 71.585938 C 16.032623 77.601931 18.525549 84.191459 20.935547 90.564453 C 24.001544 98.672445 27.172752 107.05662 29.34375 114.22461 C 31.100748 120.0166 32.029735 124.74341 32.927734 129.31641 C 33.764734 133.5704 34.630205 137.96946 36.158203 143.18945 C 38.405201 150.69345 42.523318 160.06974 48.070312 170.30273 C 52.789308 179.02973 59.452008 189.79765 67.875 202.30664 C 74.875993 212.71663 81.798163 222.27449 89.035156 231.52148 C 96.103149 240.57948 110.1115 257.6905 124.52148 270.52148 C 136.55847 281.23847 143.93741 284.84975 149.56641 286.96875 L 149.66797 286.68555 C 144.06197 284.57555 136.71488 280.97891 124.71289 270.29492 C 110.31991 257.47993 96.323712 240.38107 89.261719 231.33008 C 82.028726 222.08809 75.112227 212.53876 68.115234 202.13477 C 59.698243 189.63278 53.039214 178.87329 48.324219 170.1543 C 42.788224 159.94031 38.676545 150.58456 36.435547 143.10156 C 34.912548 137.89557 34.049843 133.50481 33.214844 129.25781 C 32.314845 124.67782 31.383092 119.94271 29.621094 114.13672 C 27.446096 106.95873 24.273075 98.56807 21.205078 90.455078 C 18.796081 84.085084 16.30406 77.498322 14.289062 71.486328 C 13.997063 70.637329 13.682375 69.747937 13.359375 68.835938 C 11.401377 63.297943 9.1825317 57.021575 9.6445312 53.767578 C 9.936531 51.58758 11.130111 50.830656 12.287109 50.097656 L 12.326172 50.074219 C 12.761171 49.805219 13.217204 49.542109 13.658203 49.287109 C 16.7782 47.489111 20.004673 45.630666 20.888672 39.388672 C 21.999671 30.88668 20.768435 17.70646 18.023438 8.7304688 C 17.010439 5.503472 15.720592 2.5859974 14.433594 0 L 14.105469 0 z M 16.78125 0 A 76.684 76.684 0 0 1 21.984375 12.556641 C 24.732372 21.548632 26.09253 34.839759 25.144531 43.46875 C 24.393532 49.713744 21.295778 51.557799 18.300781 53.341797 C 17.867782 53.599797 17.42114 53.866625 16.994141 54.140625 L 16.9375 54.177734 C 15.824501 54.907734 14.562172 55.736034 14.326172 58.082031 C 13.959172 61.466028 16.345174 67.961365 18.451172 73.693359 C 18.783172 74.597358 19.10625 75.477548 19.40625 76.310547 C 21.583248 82.548541 24.277768 89.382241 26.884766 95.990234 C 29.987763 103.85623 33.195549 111.99021 35.435547 118.9082 C 37.333545 124.7822 38.384392 129.52915 39.400391 134.11914 C 40.25139 137.95914 41.131954 141.93254 42.501953 146.51953 C 44.712951 153.77952 48.598834 162.5172 54.048828 172.49219 C 59.035823 181.64618 66.415681 193.34251 75.388672 206.3125 C 81.877665 215.70549 88.188647 224.27859 94.681641 232.51758 C 101.75663 241.52457 115.77317 258.55675 130.16016 271.42773 C 142.06514 282.07772 149.45624 285.85263 155.11523 288.14062 L 155.22656 287.85156 C 149.59157 285.57156 142.22936 281.8104 130.35938 271.19141 C 115.98939 258.33442 101.98406 241.32026 94.914062 232.32227 C 88.424069 224.08627 82.118759 215.51885 75.634766 206.13086 C 66.666775 193.16787 59.291542 181.48288 54.310547 172.33789 C 48.947552 162.5219 44.962107 153.56277 42.787109 146.42578 C 41.421111 141.85179 40.544312 137.88578 39.695312 134.05078 C 38.677314 129.45279 37.624701 124.69659 35.720703 118.80859 C 33.478705 111.8816 30.268059 103.74209 27.164062 95.871094 C 24.559065 89.2661 21.865404 82.436119 19.691406 76.203125 C 19.391407 75.368126 19.068375 74.48703 18.734375 73.582031 C 16.744377 68.165037 14.267907 61.425231 14.628906 58.115234 C 14.848906 55.918237 15.99261 55.166452 17.099609 54.439453 L 17.15625 54.404297 C 17.57925 54.134297 18.022125 53.869281 18.453125 53.613281 C 21.513122 51.791283 24.679266 49.905853 25.447266 43.505859 C 26.401265 34.837868 25.037435 21.491882 22.273438 12.462891 A 76.946 76.946 0 0 0 17.126953 0 L 16.78125 0 z M 19.087891 0 C 21.916888 4.8859951 24.522049 10.930397 26.373047 17.025391 C 29.063044 26.133382 30.45564 39.039993 29.681641 47.708984 C 29.050641 54.120978 26.01031 56.003221 23.070312 57.824219 C 22.652313 58.084218 22.21964 58.350953 21.806641 58.626953 L 21.738281 58.673828 C 20.665282 59.403827 19.450062 60.233143 19.289062 62.619141 A 7.14 7.14 0 0 0 19.271484 63.117188 C 19.271484 66.465184 21.40683 72.131161 23.298828 77.160156 C 23.629828 78.040155 23.952907 78.900704 24.253906 79.720703 C 26.700904 86.543696 29.795065 94.079195 32.789062 101.36719 C 36.001059 109.18818 39.034612 116.57646 41.349609 123.18945 C 43.529607 129.42045 44.738251 134.33966 45.90625 139.09766 C 46.809249 142.77465 47.742236 146.57669 49.115234 150.92969 C 51.464232 158.22168 55.586115 167.15659 61.037109 176.76758 C 70.8471 194.16956 86.236141 216.37041 102.20312 236.15039 C 109.24112 244.92038 123.14284 261.4809 137.17383 273.83789 C 148.24782 283.58988 155.07188 287.2185 160.79688 289.6875 L 160.91797 289.39062 C 155.21797 286.93063 148.41794 283.31283 137.37695 273.58984 C 123.36397 261.24986 109.47535 244.7064 102.44336 235.94141 C 86.487375 216.17443 71.110584 193.99245 61.308594 176.60547 C 55.868599 167.01248 51.754107 158.09912 49.412109 150.82812 C 48.043111 146.48713 47.109983 142.68957 46.208984 139.01758 C 45.038986 134.25158 43.829529 129.32607 41.644531 123.08008 C 39.325534 116.45808 36.290169 109.06623 33.076172 101.24023 C 30.085175 93.957242 26.991873 86.425415 24.546875 79.607422 C 24.245875 78.785423 23.921843 77.926921 23.589844 77.044922 C 21.611846 71.789927 19.36861 65.833528 19.599609 62.644531 C 19.749609 60.417533 20.847157 59.667359 21.910156 58.943359 L 21.976562 58.898438 C 22.384562 58.627438 22.814469 58.361515 23.230469 58.103516 C 26.237466 56.240517 29.346141 54.315228 29.994141 47.740234 C 30.77214 39.033243 29.373872 26.076678 26.671875 16.929688 C 24.834877 10.881694 22.256169 4.8799951 19.451172 0 L 19.087891 0 z M 21.138672 0 C 23.05367 2.8739971 24.497689 5.9918163 26.179688 9.7578125 C 27.796686 13.375809 29.467236 17.317098 30.740234 21.621094 C 33.430232 30.993084 34.894531 44.332399 34.144531 52.650391 C 33.529532 58.770385 30.65595 60.62883 27.876953 62.423828 C 27.456954 62.693828 27.023375 62.974672 26.609375 63.263672 L 26.537109 63.314453 C 25.50311 64.054452 24.329047 64.895081 24.248047 67.330078 C 24.208047 68.600077 24.49461 70.276549 25.099609 72.310547 C 25.999608 75.341544 27.30822 78.730769 28.574219 82.009766 C 28.938218 82.952765 29.301297 83.891267 29.654297 84.822266 C 32.287294 91.867259 35.618847 99.650789 38.839844 107.17578 C 41.981841 114.51577 44.949877 121.44932 47.296875 127.69531 C 49.790873 134.33231 51.162236 139.43415 52.490234 144.36914 C 53.431233 147.86814 54.405626 151.4878 55.765625 155.5918 C 58.189623 162.75179 62.434927 171.63249 68.044922 181.27148 C 72.385918 188.74348 78.429539 197.95837 86.519531 209.44336 C 94.139524 220.27335 101.76127 230.30901 109.82227 240.125 C 121.68225 254.61399 134.24407 267.91524 144.28906 276.61523 C 155.06905 285.95823 161.47968 289.25814 166.63867 291.61914 L 166.76953 291.3125 C 161.62954 288.9605 155.24704 285.67337 144.49805 276.35938 C 134.46606 267.66938 121.9183 254.38219 110.07031 239.9082 C 102.01432 230.09821 94.398196 220.06713 86.783203 209.24414 C 78.698211 197.76715 72.660214 188.56165 68.324219 181.09766 C 62.725224 171.47767 58.489263 162.61946 56.072266 155.48047 C 54.715267 151.38547 53.744687 147.77329 52.804688 144.2793 C 51.474689 139.3353 50.099607 134.22426 47.599609 127.57227 C 45.250612 121.31927 42.279716 114.3831 39.136719 107.03711 C 35.916722 99.515117 32.588029 91.736212 29.957031 84.699219 C 29.604032 83.76722 29.239953 82.826765 28.876953 81.884766 C 27.613954 78.612769 26.307108 75.229934 25.412109 72.210938 C 24.81711 70.212939 24.536219 68.573843 24.574219 67.339844 C 24.649219 65.072846 25.703657 64.317843 26.722656 63.589844 L 26.794922 63.537109 C 27.200921 63.25411 27.612829 62.988031 28.048828 62.707031 C 30.761825 60.955033 33.835751 58.967634 34.46875 52.681641 C 35.220749 44.326649 33.752732 30.932428 31.052734 21.523438 C 29.772736 17.198442 28.095608 13.243231 26.474609 9.6152344 C 24.822611 5.9162381 23.399248 2.8399972 21.53125 0 L 21.138672 0 z M 22.855469 0 C 23.719468 1.2209988 24.600438 2.4756575 25.398438 3.7226562 C 27.361436 6.7796532 28.797658 10.023176 30.472656 13.951172 C 31.990655 17.509168 33.721298 21.684067 35.029297 26.164062 C 37.761294 35.811053 39.312671 49.278289 38.638672 57.488281 C 38.087672 63.435275 35.368232 65.295705 32.740234 67.095703 C 32.262235 67.423703 31.766734 67.761188 31.302734 68.117188 L 31.273438 68.140625 C 30.280438 68.920624 29.157891 69.804862 29.212891 72.380859 C 29.268891 75.681856 31.623174 81.50649 33.701172 86.646484 C 34.066172 87.548483 34.421953 88.426673 34.751953 89.263672 C 37.65195 96.762664 41.347832 105.06285 44.923828 113.08984 C 48.143825 120.31984 51.184237 127.14626 53.615234 133.28125 C 56.275232 140.01124 57.77847 145.13771 59.230469 150.0957 C 60.138468 153.1977 61.077064 156.40503 62.289062 159.95703 C 64.70806 166.91102 68.754459 175.22784 74.314453 184.67383 C 78.917449 192.51382 85.692134 202.61528 94.453125 214.69727 C 101.59112 224.56126 108.59905 233.62245 115.87305 242.39844 C 122.84804 250.83843 136.59856 266.77451 150.31055 278.6875 C 160.98454 287.96249 167.45088 291.42727 172.67188 293.94727 L 172.81445 293.63477 C 167.61146 291.12477 161.17033 287.67087 150.52734 278.42188 C 136.83336 266.52489 123.0979 250.60387 116.12891 242.17188 C 108.85891 233.40188 101.8547 224.34627 94.720703 214.48828 C 85.966712 202.41429 79.197605 192.32418 74.599609 184.49219 C 69.049615 175.0652 65.014513 166.77084 62.603516 159.83984 C 61.394517 156.29685 60.45778 153.09118 59.550781 149.99219 C 58.096783 145.02719 56.592779 139.89343 53.925781 133.14844 C 51.491784 127.00644 48.448559 120.1744 45.226562 112.94141 C 41.652566 104.91841 37.957497 96.622852 35.0625 89.130859 C 34.7295 88.29286 34.374765 87.411765 34.009766 86.509766 C 31.944768 81.397771 29.602875 75.604137 29.546875 72.369141 C 29.492875 69.970143 30.501563 69.177109 31.476562 68.412109 L 31.501953 68.390625 C 31.958953 68.042625 32.428782 67.720859 32.925781 67.380859 C 35.495779 65.620861 38.404704 63.628619 38.970703 57.515625 C 39.648702 49.266633 38.09156 35.744537 35.351562 26.060547 C 34.036564 21.560551 32.300342 17.37659 30.777344 13.808594 C 29.097345 9.8665977 27.653779 6.6063407 25.675781 3.5273438 A 92.939 92.939 0 0 0 23.271484 0 L 22.855469 0 z M 24.646484 0 C 25.418484 1.2369988 26.239782 2.451345 27.050781 3.6523438 C 27.93778 4.9613424 28.852735 6.3161576 29.677734 7.6601562 C 31.665732 10.889153 33.079658 14.219332 34.722656 18.236328 C 36.399655 22.333324 38.012923 26.376879 39.294922 30.796875 C 42.081919 40.722865 43.732765 54.312211 43.134766 62.408203 C 42.637766 68.259197 40.021185 70.150471 37.492188 71.980469 C 37.062188 72.290468 36.619218 72.611313 36.199219 72.945312 L 36.138672 72.994141 C 35.126673 73.81914 33.978313 74.753706 34.195312 77.595703 C 34.279312 78.688702 34.585469 80.073845 35.105469 81.714844 C 36.149468 85.01884 37.759408 88.876426 39.316406 92.607422 C 39.707406 93.544421 40.09675 94.47386 40.46875 95.380859 C 43.520747 102.90285 47.377472 111.20829 51.105469 119.23828 C 54.175466 125.85027 57.075565 132.09458 59.476562 137.76758 C 62.591559 145.11757 64.311611 150.54497 65.974609 155.79297 C 66.929608 158.80697 67.917298 161.92161 69.154297 165.34961 C 71.577294 171.9286 75.452833 179.69088 80.673828 188.42188 C 86.965822 198.97686 96.03421 211.57707 102.5332 220.28906 C 109.1262 229.14605 115.50516 237.24207 122.03516 245.03906 C 129.02315 253.40805 142.7922 269.22836 156.49219 281.15234 C 167.09018 290.37833 173.62683 294.01046 178.92383 296.68945 L 179.07617 296.36719 C 173.79818 293.69719 167.28183 290.08085 156.71484 280.88086 C 143.03286 268.97387 129.27887 253.16763 122.29688 244.80664 C 115.77188 237.01465 109.39563 228.92326 102.80664 220.07227 C 96.311647 211.36727 87.251791 198.77832 80.966797 188.23633 C 75.758802 179.52434 71.89156 171.7806 69.476562 165.22461 C 68.242564 161.80461 67.25578 158.69264 66.300781 155.68164 C 64.634783 150.42365 62.913013 144.98804 59.791016 137.62305 C 57.387018 131.94405 54.487013 125.69798 51.416016 119.08398 C 47.690019 111.05599 43.835153 102.75523 40.785156 95.240234 C 40.411157 94.331235 40.023812 93.404796 39.632812 92.466797 C 38.077814 88.743801 36.472593 84.893512 35.433594 81.603516 C 34.922594 79.990517 34.621062 78.632358 34.539062 77.568359 C 34.339063 74.918362 35.362563 74.082343 36.351562 73.277344 L 36.410156 73.230469 C 36.821156 72.903469 37.2425 72.59839 37.6875 72.275391 C 40.161498 70.486392 42.966516 68.459447 43.478516 62.439453 C 44.078515 54.304461 42.420044 40.659256 39.623047 30.697266 C 38.335048 26.25727 36.720061 22.206605 35.039062 18.099609 C 33.390064 14.067613 31.969795 10.724653 29.966797 7.4726562 C 29.138798 6.1226576 28.220983 4.7632174 27.333984 3.4492188 A 126.236 126.236 0 0 1 25.058594 0 L 24.646484 0 z M 26.939453 0 C 28.149452 2.6699973 29.80097 5.2265181 31.417969 7.7285156 C 32.253968 9.0215143 33.118391 10.360642 33.900391 11.681641 C 35.950389 15.138637 37.445455 18.805239 39.189453 23.240234 C 40.780452 27.29023 42.312204 31.273051 43.533203 35.498047 C 46.2962 45.347037 48.03964 58.511836 47.681641 66.798828 C 47.357641 72.934822 44.800169 74.937049 42.326172 76.873047 C 41.913172 77.197047 41.485031 77.532907 41.082031 77.878906 L 40.962891 77.982422 C 40.008892 78.820421 38.927922 79.769643 39.169922 82.556641 C 39.439922 85.785637 41.767315 91.185177 43.820312 95.951172 C 44.204312 96.843171 44.581641 97.714876 44.931641 98.546875 C 48.405637 106.94687 52.936364 116.3456 57.318359 125.43359 C 60.478356 131.98759 63.464987 138.17721 65.958984 143.7832 C 69.255981 151.2022 71.092189 156.60413 72.867188 161.82812 C 73.850187 164.71912 74.865282 167.70733 76.113281 170.98633 C 78.728279 177.72232 82.77649 185.51268 88.146484 194.13867 C 92.94948 201.86566 100.05346 211.99565 108.68945 223.43164 C 115.23945 232.11763 121.66594 240.16988 128.33594 248.04688 C 135.34593 256.35387 149.15134 272.07164 162.86133 284.01562 C 173.40132 293.19762 179.79065 296.87071 185.43164 299.8457 L 185.57422 299.55664 C 187.98222 301.07864 190.14494 302.29969 192.21094 303.42969 L 192.30078 303.25586 L 192.30273 303.25586 C 194.79873 304.86586 197.0715 306.18422 199.3125 307.44922 L 199.34766 307.38281 C 202.04048 309.15993 204.30109 310.48919 206.27344 311.63281 A 131.682 131.682 0 0 1 201.86719 308.52734 A 131.682 131.682 0 0 0 201.86523 308.52734 L 201.86328 308.52539 C 197.42329 305.74539 191.69348 301.74195 183.77148 294.87695 C 171.4575 284.20396 159.07155 270.91543 150.85156 261.64844 A 587.64 587.64 0 0 1 128.9082 235.4668 C 120.47121 224.81881 114.10809 216.26963 109.99609 210.05664 C 104.7491 202.14565 100.70833 195.03396 97.986328 188.91797 C 96.896329 186.45797 96.070312 184.30725 95.195312 182.03125 C 94.380313 179.91425 93.539702 177.72834 92.470703 175.27734 C 90.623705 171.03735 87.923247 165.67762 85.28125 160.51562 C 82.767253 155.66363 79.9222 150.42299 76.908203 144.875 C 71.660208 135.21501 66.232808 125.22508 62.007812 116.24609 L 60.867188 113.85547 C 59.287189 110.55147 57.65178 107.1365 56.300781 103.9375 C 55.333782 101.6495 54.723281 99.776952 54.488281 98.376953 C 54.051282 95.745956 54.827173 94.79114 55.576172 93.869141 L 55.634766 93.796875 C 56.077765 93.264876 56.555501 92.778671 57.0625 92.263672 C 59.057498 90.236674 61.321047 87.940354 61.498047 82.193359 C 61.658047 74.524367 59.707903 61.600708 56.753906 50.761719 C 55.463908 46.179723 53.883467 41.828136 52.355469 37.619141 L 51.980469 36.580078 C 50.40047 32.220082 49.036779 28.454653 47.050781 24.722656 C 46.266782 23.244658 45.398546 21.758358 44.560547 20.318359 C 42.213549 16.292363 39.787671 12.127402 38.888672 7.6914062 C 38.410672 5.3784086 38.344094 2.4589975 38.996094 0 L 38.597656 0 C 38.273657 1.2629987 38.130859 2.6343763 38.130859 3.984375 C 38.130859 5.3123737 38.26786 6.6184387 38.505859 7.7734375 C 39.418858 12.275433 41.862565 16.469442 44.226562 20.523438 C 45.062562 21.959436 45.927032 23.445064 46.707031 24.914062 C 48.680029 28.622059 50.039283 32.376661 51.613281 36.722656 L 51.990234 37.759766 C 53.515233 41.961761 55.093908 46.306098 56.378906 50.871094 C 59.323903 61.675083 61.267422 74.551601 61.107422 82.183594 C 60.936422 87.767588 58.82806 89.907565 56.789062 91.976562 C 56.276063 92.497562 55.791937 92.98911 55.335938 93.537109 L 55.275391 93.611328 C 54.507391 94.558327 53.635516 95.630315 54.103516 98.445312 C 54.343515 99.878311 54.962407 101.78066 55.941406 104.09766 C 57.297405 107.30665 58.933627 110.72621 60.515625 114.0332 C 60.896625 114.8302 61.27925 115.62783 61.65625 116.42383 C 65.887246 125.41182 71.316365 135.40723 76.568359 145.07422 C 79.581356 150.61921 82.425503 155.85713 84.9375 160.70312 C 87.575497 165.85812 90.270283 171.21236 92.113281 175.44336 C 93.17928 177.88336 94.019985 180.06869 94.833984 182.17969 C 95.671984 184.36069 96.538814 186.61594 97.632812 189.08594 C 100.36581 195.22293 104.41779 202.35226 109.67578 210.28125 C 113.79578 216.50524 120.16343 225.06471 128.60742 235.7207 A 588.521 588.521 0 0 0 150.56641 261.92188 C 158.7944 271.19687 171.1905 284.49656 183.52148 295.18555 C 188.45648 299.46154 192.54305 302.63094 195.99805 305.08594 C 197.18705 305.92994 198.2977 306.68986 199.3457 307.38086 C 198.29932 306.69023 197.18525 305.93232 195.99805 305.08789 C 190.85805 302.02989 185.08179 298.10556 176.5918 290.72656 C 163.64181 279.46557 150.47143 264.94405 143.77344 257.28906 C 117.99146 227.96809 97.594962 199.2564 90.542969 182.35742 C 89.50897 179.89742 88.732155 177.74956 87.910156 175.47656 C 87.224157 173.57656 86.51353 171.61284 85.644531 169.46484 C 83.859533 165.05385 81.137029 159.37443 78.707031 154.39844 C 76.230034 149.39044 73.390809 143.95035 70.382812 138.19336 C 65.489817 128.82737 60.427949 119.14112 56.501953 110.45312 C 56.082954 109.53913 55.655609 108.61359 55.224609 107.68359 C 53.656611 104.2956 52.035889 100.7932 50.837891 97.658203 C 50.175891 95.928205 49.739922 94.472983 49.544922 93.333984 C 49.071922 90.553987 49.920969 89.577796 50.667969 88.716797 C 51.161968 88.161797 51.700485 87.665624 52.271484 87.140625 C 54.362482 85.216627 56.731766 83.034838 57.009766 77.339844 C 57.306765 69.555852 55.38445 56.138489 52.439453 45.4375 C 51.165454 40.964504 49.601842 36.745058 48.089844 32.664062 L 47.794922 31.867188 C 46.266923 27.739192 44.947061 24.174059 43.039062 20.664062 C 42.207063 19.129064 41.279765 17.589608 40.384766 16.099609 C 38.056768 12.229613 35.649687 8.2250739 34.679688 3.9550781 A 17.751 17.751 0 0 1 34.230469 0 L 33.857422 0 A 18.52 18.52 0 0 0 34.310547 4.0449219 C 35.295546 8.3779175 37.719502 12.407691 40.0625 16.304688 C 40.956499 17.790686 41.879032 19.326517 42.707031 20.853516 C 44.602029 24.338512 45.917455 27.892817 47.439453 32.007812 L 47.734375 32.802734 C 49.244373 36.87673 50.80622 41.088926 52.074219 45.544922 C 55.011216 56.208911 56.927859 69.57332 56.630859 77.320312 C 56.36086 82.850307 54.155482 84.880705 52.021484 86.845703 C 51.443485 87.377703 50.896718 87.880172 50.386719 88.451172 C 49.62072 89.335171 48.666876 90.434394 49.171875 93.400391 C 49.371875 94.565389 49.812376 96.045783 50.484375 97.800781 C 51.687374 100.94778 53.311814 104.45657 54.882812 107.85156 C 55.312812 108.78156 55.741204 109.70519 56.158203 110.61719 C 60.090199 119.31618 65.152833 129.00692 70.048828 138.37891 C 73.055825 144.1349 75.894143 149.57022 78.369141 154.57422 C 80.795138 159.54221 83.514924 165.21429 85.294922 169.61328 C 86.161921 171.75428 86.869688 173.71628 87.554688 175.61328 C 88.342687 177.79128 89.15536 180.04272 90.193359 182.51172 C 97.259352 199.4467 117.68326 228.20076 143.49023 257.55273 C 159.11022 275.40072 170.78166 286.1844 176.34766 291.02539 C 182.01708 295.95489 186.47788 299.34296 190.34961 301.96484 C 185.08461 298.99285 178.94668 295.06518 169.67969 286.99219 C 156.7247 275.7002 143.58134 261.04449 136.90234 253.3125 C 129.55435 244.82951 122.47581 236.11949 115.25781 226.6875 C 106.92182 215.81051 100.45034 206.79276 96.027344 199.88477 C 90.291349 190.93977 85.992044 182.9132 83.248047 176.0332 C 82.188048 173.32421 81.262187 170.78036 80.367188 168.31836 C 78.30319 162.64737 76.16909 156.78279 72.246094 148.4668 C 69.804096 143.2918 66.972606 137.65454 63.974609 131.68555 C 59.416614 122.61056 54.702824 113.22649 51.048828 104.8125 C 50.663829 103.9365 50.271859 103.05387 49.880859 102.17188 C 48.499861 99.063878 47.070311 95.848763 45.945312 92.884766 C 45.112313 90.690768 44.620328 88.903217 44.486328 87.574219 C 44.237328 85.105221 45.10636 84.25278 45.943359 83.425781 L 46.025391 83.345703 C 46.45839 82.930704 46.911625 82.546625 47.390625 82.140625 C 49.675623 80.205627 52.265203 78.012416 52.533203 71.857422 C 52.807203 63.92743 51.020154 50.879115 48.285156 40.828125 C 47.054157 36.442129 45.534077 32.355027 43.955078 28.207031 L 43.783203 27.755859 C 42.142205 23.441864 40.725826 19.71584 38.673828 16.089844 C 37.858829 14.643845 36.953124 13.190155 36.078125 11.785156 C 33.743127 8.03316 31.329843 4.1549958 30.339844 0 L 29.962891 0 C 30.95589 4.2489958 33.403487 8.1832851 35.771484 11.988281 C 36.644484 13.39028 37.547423 14.841298 38.357422 16.279297 C 40.39442 19.879293 41.807361 23.592582 43.443359 27.892578 L 43.615234 28.345703 C 45.192233 32.485699 46.708548 36.562645 47.935547 40.931641 C 50.661544 50.947631 52.440968 63.947805 52.167969 71.841797 C 51.907969 77.825791 49.494154 79.868705 47.160156 81.845703 C 46.676157 82.255703 46.21839 82.64336 45.775391 83.068359 L 45.693359 83.150391 C 44.83236 83.99739 43.856047 84.958284 44.123047 87.613281 C 44.262047 88.97628 44.761423 90.79644 45.607422 93.023438 C 46.737421 95.996435 48.16683 99.216081 49.548828 102.33008 C 49.940828 103.21208 50.333797 104.09275 50.716797 104.96875 C 54.374793 113.39074 59.090395 122.78038 63.650391 131.85938 C 66.648388 137.82637 69.478971 143.46282 71.917969 148.63281 C 75.834965 156.9348 77.96344 162.78818 80.023438 168.45117 C 80.920437 170.91517 81.848204 173.46174 82.908203 176.17773 C 85.6632 183.08073 89.973662 191.12876 95.722656 200.09375 C 100.15065 207.01074 106.62676 216.03884 114.96875 226.92383 C 122.19174 236.36382 129.27691 245.07546 136.62891 253.56445 C 143.3159 261.30445 156.46937 275.97426 169.44336 287.28125 C 175.93935 292.94124 180.90443 296.56977 185.10742 299.25977 C 179.60243 296.33677 173.30274 292.62741 163.09375 283.73242 C 149.40176 271.80343 135.60751 256.10268 128.60352 247.80469 C 121.93852 239.9307 115.5167 231.88507 108.9707 223.20508 C 100.34071 211.77809 93.244261 201.65745 88.447266 193.93945 C 83.089271 185.33246 79.05031 177.56356 76.445312 170.85156 C 75.200314 167.57957 74.186077 164.59403 73.205078 161.70703 C 71.42708 156.47504 69.587153 151.06385 66.285156 143.63086 C 63.788159 138.01786 60.801669 131.82452 57.638672 125.26953 C 53.257676 116.18554 48.729762 106.79338 45.259766 98.400391 A 407.19 407.19 0 0 0 44.146484 95.804688 C 42.104486 91.064692 39.78939 85.691387 39.525391 82.525391 C 39.300391 79.926393 40.263313 79.082624 41.195312 78.265625 L 41.314453 78.160156 C 41.708453 77.822157 42.113969 77.504922 42.542969 77.169922 C 44.962966 75.274924 47.707063 73.128353 48.039062 66.818359 C 48.399062 58.494368 46.64895 45.280474 43.876953 35.396484 C 42.649954 31.155489 41.117483 27.161512 39.521484 23.103516 C 37.771486 18.65152 36.270076 14.970231 34.205078 11.490234 C 33.420079 10.163236 32.554796 8.8214362 31.716797 7.5234375 C 30.139798 5.0834399 28.529936 2.5919974 27.335938 0 L 26.939453 0 z M 44.902344 0 A 5.506 5.506 0 0 0 44.070312 0.953125 C 42.803314 2.7771232 42.300781 5.4278151 42.300781 8.0078125 C 42.300781 9.3798111 42.441453 10.733642 42.689453 11.931641 C 43.616452 16.511636 46.061784 20.820332 48.425781 24.986328 C 49.35178 26.617326 50.308204 28.303517 51.158203 29.978516 C 52.856201 33.315512 54.096204 36.824066 55.408203 40.539062 L 55.873047 41.849609 L 56.332031 43.142578 C 57.72203 47.042574 59.158189 51.076442 60.367188 55.273438 C 63.527184 66.618426 65.647344 79.844601 65.527344 87.433594 C 65.383344 92.766588 63.420436 94.948549 61.523438 97.060547 C 60.972438 97.674546 60.450562 98.255204 59.976562 98.908203 C 59.293563 99.876202 58.442657 101.08049 59.097656 104.14648 C 59.391656 105.51248 59.996532 107.25055 60.894531 109.31055 C 62.20153 112.31054 63.78922 115.51428 65.324219 118.61328 C 65.774218 119.52028 66.224969 120.42903 66.667969 121.33203 C 71.283964 130.83502 77.28199 141.47659 83.083984 151.76758 C 86.005981 156.94957 88.76519 161.8423 91.242188 166.4043 C 94.060185 171.65629 97.222877 177.63779 99.296875 182.17578 C 100.40287 184.59078 101.28081 186.74989 102.13281 188.83789 C 102.99881 190.96189 103.81547 192.96833 104.85547 195.23633 C 107.68447 201.37632 111.63474 208.16052 116.92773 215.97852 C 121.44473 222.66451 128.70298 232.16237 137.91797 243.44336 C 145.26696 252.45735 152.40977 260.76009 159.75977 268.83008 C 167.49276 277.33907 179.15837 289.59607 190.81836 299.66406 C 195.06436 303.32706 198.70519 306.20239 201.86719 308.52539 A 161.207 161.207 0 0 0 206.63281 311.37891 C 202.54302 308.63098 197.50757 304.89518 191.07617 299.3457 C 179.43018 289.29271 167.77677 277.04982 160.05078 268.54883 C 152.70679 260.48384 145.56665 252.18377 138.22266 243.17578 C 129.01567 231.90279 121.76485 222.41627 117.25586 215.73828 C 111.97386 207.93829 108.03579 201.17363 105.2168 195.05664 C 104.1818 192.79864 103.36695 190.79478 102.50195 188.67578 C 101.64995 186.58278 100.7672 184.42004 99.658203 181.99805 C 97.578205 177.44905 94.413794 171.46117 91.591797 166.20117 C 89.111799 161.63518 86.351685 156.73964 83.429688 151.55664 C 77.631693 141.27165 71.635386 130.63652 67.025391 121.14453 C 66.580391 120.23853 66.13064 119.33083 65.681641 118.42383 C 64.148642 115.32883 62.561764 112.12867 61.259766 109.13867 C 60.372767 107.10267 59.778234 105.39169 59.490234 104.05469 C 58.873235 101.17069 59.632782 100.09734 60.300781 99.152344 C 60.760781 98.518344 61.27436 97.945843 61.818359 97.339844 C 63.675358 95.272846 65.780688 92.929448 65.929688 87.439453 C 66.055687 79.813461 63.925903 66.536285 60.753906 55.154297 C 59.540907 50.941301 58.101936 46.903043 56.710938 42.998047 L 56.25 41.703125 L 55.785156 40.394531 C 54.469158 36.666535 53.22467 33.1432 51.513672 29.783203 C 50.659673 28.099205 49.698483 26.408436 48.771484 24.773438 C 46.422487 20.636442 43.99603 16.358745 43.082031 11.84375 C 42.262032 7.866754 42.802486 3.486404 44.396484 1.1914062 C 44.740484 0.69740674 45.126735 0.2999997 45.552734 0 L 44.902344 0 z M 51.492188 0 C 53.430186 0.61299939 55.416189 1.5325009 57.367188 2.4375 C 58.752186 3.0794994 60.06022 3.6878755 61.324219 4.171875 C 65.614214 5.8038734 69.156613 6.6834065 72.474609 6.9414062 C 73.127609 6.9914062 73.777798 7.0530938 74.466797 7.1210938 C 76.912794 7.3570935 79.444659 7.6019528 81.847656 7.2519531 C 84.441654 6.8709535 86.730877 5.290685 88.296875 2.8046875 C 88.839874 1.9396884 89.276422 0.99499901 89.607422 0 L 89.175781 0 C 88.860782 0.91999908 88.456937 1.7930789 87.960938 2.5800781 C 86.460939 4.9640757 84.26606 6.4767972 81.789062 6.8417969 C 79.432065 7.1837965 76.927904 6.941031 74.503906 6.7070312 C 73.843907 6.6430313 73.160859 6.5773437 72.505859 6.5273438 C 69.224863 6.272344 65.714886 5.4002015 61.462891 3.7832031 C 60.210892 3.3032036 58.907295 2.7005462 57.529297 2.0605469 C 55.949298 1.3275476 54.34967 0.58599941 52.763672 0 L 51.492188 0 z M 56.986328 0 C 57.300328 0.12399988 57.613735 0.2452345 57.927734 0.36523438 C 62.01873 1.9222328 65.409659 2.8065785 68.597656 3.1425781 C 69.209656 3.2075781 69.847797 3.282422 70.466797 3.3574219 C 72.976794 3.6574216 75.572737 3.9695623 78.052734 3.7265625 C 80.607732 3.4725628 82.85308 2.0819979 84.455078 0 L 83.949219 0 C 82.42822 1.8589981 80.359623 3.092219 78.015625 3.3242188 C 75.576627 3.5642185 73.001716 3.2570309 70.511719 2.9570312 C 69.892719 2.8830313 69.254671 2.8052343 68.638672 2.7402344 C 65.492675 2.4082347 62.141699 1.5379985 58.095703 0 L 56.986328 0 z M 70.273438 0 C 71.718436 0.14799985 73.16608 0.21979675 74.580078 0.091796875 C 74.817078 0.070796896 75.052203 0.03999996 75.283203 0 L 70.273438 0 z M 93.859375 0 C 93.272376 4.7529952 90.457339 9.2671414 85.777344 9.9941406 C 84.734345 10.15314 83.612577 10.179219 82.142578 10.074219 C 81.156579 10.004219 80.16889 9.9838437 79.212891 9.9648438 A 58.398 58.398 0 0 1 76.392578 9.8632812 C 73.377581 9.6572815 70.229371 8.9339362 66.484375 7.5859375 C 64.783377 6.9739381 63.075826 6.2612181 61.423828 5.5742188 C 60.321829 5.1152192 59.182593 4.6421246 58.058594 4.203125 L 57.947266 4.1601562 C 55.704268 3.2831571 53.164091 2.2866566 50.871094 2.5976562 C 49.644095 2.7506561 48.610734 3.421798 47.802734 4.5917969 C 46.546736 6.4097951 46.048828 9.062112 46.048828 11.662109 C 46.048828 13.084108 46.198078 14.489423 46.455078 15.732422 C 47.381077 20.294417 49.760502 24.597817 52.0625 28.757812 C 52.922499 30.312811 53.812376 31.920627 54.609375 33.515625 C 56.439373 37.157621 57.699158 40.779614 59.160156 44.974609 C 59.310156 45.409609 59.464141 45.848922 59.619141 46.294922 L 60.103516 47.677734 C 61.489514 51.62773 62.921673 55.713364 64.138672 59.943359 C 67.243669 71.093348 69.454719 84.100273 69.511719 91.572266 C 69.506719 97.04926 67.652373 99.35208 65.859375 101.58008 C 65.253376 102.33208 64.681593 103.04124 64.183594 103.86523 C 63.441594 105.13623 62.89197 106.43269 63.667969 109.42969 C 64.568968 112.94568 67.343971 118.31569 69.792969 123.05469 C 70.285968 124.00969 70.767797 124.94022 71.216797 125.82422 C 76.219792 135.82621 82.805788 147.1114 89.175781 158.02539 C 91.999778 162.86139 94.665706 167.42975 97.095703 171.71875 C 100.2967 177.43674 103.5663 183.35969 105.7793 187.92969 C 107.0663 190.58168 108.06425 192.90821 109.03125 195.1582 C 109.88125 197.1382 110.68588 199.0088 111.67188 201.0918 C 114.56687 207.17679 118.52068 213.82784 123.76367 221.42383 C 128.29367 228.00182 135.33904 237.05495 144.70703 248.33594 C 152.07702 257.22793 159.24234 265.43379 166.61133 273.42578 C 174.35432 281.83477 186.02421 293.95904 197.6582 303.95703 C 201.5822 307.33003 205.00825 310.05264 208.03125 312.30664 A 208.462 208.462 0 0 1 206.93555 311.58203 L 206.75586 311.91211 L 206.27734 311.63477 C 208.96934 313.44876 211.25291 314.83534 213.25391 316.02734 A 145.138 145.138 0 0 1 208.04883 312.31836 A 143.86 143.86 0 0 0 213.25391 316.02539 C 216.3169 318.10539 218.8758 319.66391 221.0918 321.00391 L 221.0957 321.00781 C 224.3167 323.20281 227.00808 324.8543 229.33008 326.2793 L 229.3457 326.25586 C 232.6527 328.52386 235.46586 330.2687 238.00586 331.8457 L 238.05078 331.76758 A 179.96 179.96 0 0 1 233.16406 328.26953 C 228.19907 325.04953 222.08237 320.7411 213.73438 313.66211 C 202.07039 303.76812 190.30332 291.86218 182.48633 283.61719 C 175.83633 276.61519 169.28421 269.38748 162.44922 261.52148 C 155.89623 253.99149 146.78221 243.24391 140.57422 234.79492 C 134.98322 227.19693 130.80487 220.56492 127.42188 213.91992 L 126.30469 211.68164 C 122.41069 203.86465 118.73376 196.48111 111.00977 183.95312 C 108.58177 180.01313 105.97956 175.88181 103.22656 171.50781 C 96.16757 160.29282 88.868416 148.69451 83.232422 138.35352 C 82.765422 137.50352 82.297078 136.65655 81.830078 135.81055 C 80.01008 132.51355 78.125045 129.10542 76.498047 125.85742 C 75.392048 123.65242 74.63464 121.86358 74.181641 120.39258 C 73.191642 117.15958 73.776141 115.81623 74.244141 114.74023 C 74.67014 113.79824 75.198813 112.96889 75.757812 112.08789 C 77.243811 109.74889 78.925062 107.09649 78.789062 101.6875 C 78.511063 93.446508 75.608513 79.966709 72.853516 70.261719 C 71.614517 66.026723 70.177108 61.897246 68.787109 57.90625 C 68.48111 57.028251 68.178906 56.155109 67.878906 55.287109 L 67.425781 53.966797 C 65.909783 49.555801 64.599264 45.747512 62.697266 41.853516 C 61.910266 40.236517 61.038312 38.607202 60.195312 37.033203 C 57.965315 32.867207 55.659937 28.560355 54.710938 24.068359 C 53.795938 19.824364 54.258845 15.225857 55.839844 12.880859 C 56.522843 11.86586 57.392829 11.277812 58.423828 11.132812 C 60.420826 10.832813 62.609565 11.657032 64.726562 12.457031 L 64.833984 12.498047 C 65.862983 12.886046 66.909876 13.305891 67.921875 13.712891 C 69.604873 14.38789 71.34208 15.087922 73.080078 15.669922 C 76.956074 16.969921 80.393941 17.588359 83.585938 17.568359 C 84.175937 17.566359 84.766579 17.573078 85.392578 17.580078 C 87.877576 17.609078 90.44594 17.640484 92.835938 17.021484 C 96.069934 16.165485 97.891563 13.557482 98.851562 11.521484 C 100.07256 8.927487 100.60741 5.701872 100.31641 2.671875 C 100.22741 1.7578759 100.08625 0.86799913 99.90625 0 L 99.464844 0 C 99.650844 0.88299912 99.796719 1.7867978 99.886719 2.7167969 C 100.17272 5.6637939 99.652843 8.8002681 98.464844 11.322266 C 97.544845 13.274264 95.803466 15.772938 92.730469 16.585938 C 90.396471 17.190937 87.856435 17.159859 85.398438 17.130859 C 84.770438 17.123859 84.178984 17.116141 83.583984 17.119141 C 80.438988 17.139141 77.04784 16.526186 73.214844 15.242188 C 71.490845 14.664188 69.755123 13.967921 68.078125 13.294922 A 157.17 157.17 0 0 0 64.984375 12.076172 L 64.876953 12.035156 C 62.810955 11.255157 60.467232 10.371453 58.365234 10.689453 C 57.211236 10.849453 56.241374 11.501048 55.484375 12.623047 C 54.292376 14.392045 53.822266 17.044299 53.822266 19.654297 C 53.822266 21.243295 53.99711 22.816064 54.287109 24.164062 C 55.250108 28.720058 57.572362 33.055051 59.818359 37.248047 C 60.658359 38.818045 61.528501 40.442736 62.3125 42.052734 C 64.202498 45.921731 65.50758 49.717239 67.017578 54.115234 L 67.472656 55.4375 C 67.772656 56.305499 68.076813 57.179595 68.382812 58.058594 C 69.770811 62.04459 71.204454 66.167676 72.439453 70.388672 C 75.18545 80.065662 78.080422 93.50118 78.357422 101.70117 C 78.491422 106.96617 76.91653 109.4458 75.394531 111.8418 C 74.826532 112.7358 74.291562 113.57974 73.851562 114.55273 C 73.237563 115.96273 72.807532 117.3873 73.769531 120.5293 C 74.230531 122.0243 74.996282 123.8345 76.113281 126.0625 C 77.74528 129.3185 79.63108 132.73125 81.455078 136.03125 C 81.922078 136.87725 82.390469 137.72522 82.855469 138.57422 C 88.497463 148.92821 95.801288 160.53196 102.86328 171.75195 C 105.61628 176.12595 108.21658 180.25536 110.64258 184.19336 C 118.35657 196.70335 122.02993 204.07873 125.91992 211.88672 L 127.03711 214.12695 C 130.43211 220.79495 134.62252 227.44841 140.22852 235.06641 C 146.44651 243.5264 155.56896 254.28632 162.12695 261.82031 C 168.96595 269.6923 175.52574 276.92465 182.17773 283.93164 C 190.00173 292.18563 201.77804 304.10182 213.45703 314.00781 C 217.39903 317.35081 220.84621 320.07728 223.9082 322.36328 C 223.1732 321.88428 222.40791 321.37567 221.50391 320.76367 L 221.49609 320.75586 L 221.49414 320.75586 A 194.583 194.583 0 0 1 215.61719 317.0957 L 215.61523 317.0918 C 215.23823 316.8458 214.85203 316.59212 214.45703 316.32812 L 214.48438 316.2793 L 213.63281 315.77539 L 213.61523 315.76562 C 209.45324 312.94663 204.35987 309.16285 197.92188 303.63086 C 186.30489 293.64587 174.64315 281.5338 166.91016 273.13281 C 159.54516 265.14782 152.38648 256.94754 145.02148 248.06055 C 135.66149 236.78956 128.62156 227.74373 124.10156 221.17773 C 118.87157 213.60074 114.92601 206.96924 112.04102 200.90625 C 111.06102 198.83025 110.25916 196.96428 109.41016 194.98828 C 108.44216 192.73228 107.44039 190.40028 106.15039 187.73828 C 103.93039 183.15929 100.65912 177.23085 97.453125 171.50586 C 95.022127 167.21386 92.354247 162.64464 89.53125 157.80664 C 83.165256 146.89765 76.580979 135.6189 71.583984 125.62891 C 71.133985 124.74191 70.651203 123.81047 70.158203 122.85547 C 67.719206 118.13547 64.957358 112.78931 64.068359 109.32031 C 63.27336 106.25332 63.97411 105.05089 64.537109 104.08789 C 65.017109 103.29189 65.581735 102.59256 66.177734 101.85156 C 67.932733 99.673565 69.923734 97.202307 69.927734 91.570312 C 69.868734 84.06232 67.651153 71.006254 64.535156 59.822266 C 63.314157 55.57827 61.880186 51.488246 60.492188 47.53125 L 60.009766 46.148438 L 59.548828 44.830078 C 58.08483 40.620082 56.818561 36.985356 54.976562 33.318359 C 54.174563 31.715361 53.282921 30.10392 52.419922 28.544922 C 50.134924 24.412926 47.771421 20.140527 46.857422 15.644531 C 46.018423 11.587535 46.545673 7.1448883 48.138672 4.8378906 C 48.877671 3.7678917 49.814782 3.156578 50.925781 3.0175781 C 53.117779 2.7225784 55.60669 3.6976415 57.804688 4.5566406 L 57.914062 4.5996094 C 59.034061 5.0376089 60.171485 5.5107505 61.271484 5.96875 C 62.928483 6.6587493 64.641564 7.3713287 66.351562 7.9863281 C 70.132559 9.3463268 73.316144 10.075156 76.369141 10.285156 C 77.32114 10.350156 78.280985 10.370672 79.208984 10.388672 C 80.159983 10.408672 81.143142 10.427094 82.119141 10.496094 C 83.619139 10.603094 84.766845 10.577062 85.839844 10.414062 C 88.512841 9.9980629 90.847064 8.3214974 92.414062 5.6875 C 93.400062 4.0325017 94.037344 2.0519979 94.277344 0 L 93.859375 0 z M 215.61523 317.0918 C 217.8347 318.53945 219.76945 319.71305 221.49414 320.75586 C 217.21236 317.84595 211.98995 313.97159 205.43555 308.37109 C 193.77756 298.4041 182.04676 286.36262 174.25977 278.01562 C 167.64577 270.94063 161.12512 263.62348 154.32812 255.64648 C 147.83313 248.03849 138.76874 237.13194 132.46875 228.37695 C 126.83576 220.56096 122.67872 213.79779 119.38672 207.0918 C 118.77072 205.8138 118.17503 204.56522 117.58203 203.32422 C 114.09703 196.01523 110.80651 189.1118 104.10352 177.75781 C 101.61952 173.54582 98.916638 169.08718 96.056641 164.36719 C 89.640647 153.7832 83.005885 142.84019 77.837891 133.0332 L 76.626953 130.75977 C 74.622955 127.00777 72.549561 123.12648 70.851562 119.52148 C 69.855563 117.40749 69.191218 115.70273 68.824219 114.30273 C 68.05622 111.36974 68.673532 110.20126 69.269531 109.07227 L 69.289062 109.03711 C 69.726062 108.23411 70.243063 107.51776 70.789062 106.75977 C 72.365061 104.56977 74.150781 102.08995 74.175781 96.876953 C 74.123781 88.249962 71.217325 74.262552 68.361328 64.226562 C 67.191329 60.252566 65.846874 56.391246 64.546875 52.65625 L 63.974609 51.015625 C 63.74061 50.341626 63.514062 49.67939 63.289062 49.025391 C 61.939064 45.092395 60.664576 41.377668 58.892578 37.763672 C 58.062579 36.066674 57.140093 34.363748 56.246094 32.71875 C 53.980096 28.544754 51.636312 24.227167 50.695312 19.701172 C 49.814313 15.550176 50.313205 11.022451 51.908203 8.6894531 C 52.621202 7.6464542 53.523704 7.048203 54.595703 6.9082031 C 56.725701 6.6102034 59.157737 7.5594852 61.302734 8.3964844 L 61.513672 8.4785156 C 62.485671 8.8565152 63.475642 9.2612973 64.431641 9.6542969 C 66.055639 10.319296 67.736158 11.006657 69.410156 11.597656 C 73.402152 13.003655 76.750316 13.704734 79.945312 13.802734 C 80.733312 13.826734 81.530829 13.812828 82.298828 13.798828 C 83.225827 13.781828 84.184673 13.7625 85.138672 13.8125 C 86.298671 13.8735 87.818595 13.903703 89.308594 13.595703 C 95.014588 12.391704 97.667296 5.7059943 97.279297 0 L 96.857422 0 C 97.379421 7.3979926 93.316558 12.306923 89.226562 13.169922 C 87.783564 13.467922 86.296155 13.436906 85.160156 13.378906 C 84.192157 13.326906 83.226968 13.345281 82.292969 13.363281 C 81.52897 13.377281 80.736984 13.393141 79.958984 13.369141 C 76.806988 13.271141 73.499824 12.577545 69.548828 11.185547 C 67.88383 10.598547 66.208842 9.9149525 64.589844 9.2519531 C 63.631845 8.8589535 62.640062 8.4522652 61.664062 8.0722656 L 61.451172 7.9902344 C 59.259174 7.1342352 56.77406 6.1665159 54.539062 6.4785156 C 53.347064 6.6335155 52.346499 7.2944074 51.5625 8.4414062 C 50.335501 10.237404 49.853516 12.922112 49.853516 15.537109 C 49.853516 17.043108 50.013203 18.524829 50.283203 19.798828 C 51.238202 24.388824 53.596909 28.733551 55.878906 32.935547 C 56.769905 34.577545 57.690626 36.274845 58.515625 37.964844 C 60.275623 41.55384 61.546579 45.256785 62.892578 49.175781 C 63.116578 49.828781 63.344125 50.492969 63.578125 51.167969 L 64.150391 52.810547 C 65.447389 56.538543 66.790032 60.39352 67.957031 64.353516 C 71.887027 78.164502 73.717859 90.896865 73.755859 96.880859 C 73.731859 101.94885 72.06217 104.26491 70.451172 106.50391 C 69.896172 107.27391 69.373875 108.00013 68.921875 108.82812 L 68.902344 108.86719 C 68.295344 110.01419 67.60597 111.31888 68.417969 114.42188 C 68.792968 115.84787 69.465657 117.5798 70.472656 119.7168 C 72.176655 123.33379 74.251815 127.21761 76.257812 130.97461 C 76.662812 131.73261 77.06775 132.49009 77.46875 133.24609 C 82.642745 143.06308 89.280225 154.01353 95.699219 164.60352 C 98.559216 169.32151 101.26019 173.77733 103.74219 177.98633 C 110.43518 189.32432 113.72408 196.21859 117.20508 203.51758 C 117.79808 204.75958 118.39277 206.00711 119.00977 207.28711 C 122.31376 214.0171 126.48191 220.80363 132.12891 228.64062 C 138.4369 237.40762 147.51173 248.32451 154.01172 255.9375 C 160.81371 263.91949 167.33708 271.24032 173.95508 278.32031 C 181.75107 286.6743 193.49298 298.72804 205.16797 308.70703 C 209.09996 312.06803 212.55524 314.8068 215.61523 317.0918 z M 206.93555 311.58203 A 208.462 208.462 0 0 1 206.93555 311.58008 A 208.462 208.462 0 0 1 206.63281 311.38086 L 206.93555 311.58203 z M 206.93555 311.58008 L 206.94531 311.56055 L 206.63477 311.37891 L 206.93555 311.58008 z M 101.75977 0 C 102.39776 1.965998 102.88494 4.0226116 103.08594 6.2246094 C 103.58594 11.777604 101.40557 18.567611 96.392578 20.224609 C 94.15058 20.951609 91.689638 21.0075 89.306641 21.0625 C 88.633641 21.0775 87.996327 21.090141 87.361328 21.119141 C 84.226331 21.26414 80.852871 20.754593 77.046875 19.558594 C 75.206877 18.981594 73.359264 18.261452 71.572266 17.564453 C 70.690267 17.220453 69.778858 16.86425 68.880859 16.53125 L 68.701172 16.466797 C 66.581174 15.678798 64.391889 14.864594 62.337891 15.183594 C 61.253892 15.341594 60.337187 15.958579 59.617188 17.017578 C 58.432189 18.759576 57.966797 21.429737 57.966797 24.052734 C 57.966797 25.566733 58.121766 27.067329 58.384766 28.361328 C 59.337765 33.175323 61.781487 37.780333 64.146484 42.236328 C 65.086483 44.008326 66.059829 45.841111 66.923828 47.662109 C 68.609826 51.196106 69.833861 54.77641 71.130859 58.566406 C 71.380859 59.298406 71.636438 60.042782 71.898438 60.800781 C 72.255437 61.82778 72.617422 62.863251 72.982422 63.90625 C 74.274421 67.589246 75.61197 71.397395 76.792969 75.275391 C 79.565966 84.663381 82.938407 98.733337 83.316406 107.48633 C 83.490406 112.48832 82.101764 114.97681 80.759766 117.38281 C 80.162766 118.45381 79.59964 119.46492 79.181641 120.66992 C 78.701641 122.11692 78.367064 123.69263 79.539062 127.01562 C 80.024062 128.38562 80.789454 130.07878 81.814453 132.05078 C 83.386452 135.07578 85.211611 138.25508 86.974609 141.33008 C 87.537609 142.31008 88.099204 143.29434 88.658203 144.27734 C 94.794197 155.16033 102.79998 167.39643 110.54297 179.23242 C 113.38797 183.58242 116.07771 187.69214 118.5957 191.61914 C 127.09569 204.86913 131.07797 212.54588 135.29297 220.67188 L 135.67188 221.40234 C 139.45987 228.57834 143.88835 235.35773 150.02734 243.38672 C 155.87334 251.04171 164.5891 261.0803 170.87109 268.1543 C 177.77109 275.93729 184.36898 283.07729 191.04297 289.98828 C 202.48096 301.84827 213.03898 311.8611 222.41797 319.74609 C 226.46496 323.14609 230.00802 325.92658 233.16602 328.26758 C 234.99101 329.45158 236.66252 330.48989 238.22852 331.46289 L 238.05273 331.76758 C 241.62973 334.23758 244.66172 336.13775 247.38672 337.84375 L 247.46484 337.71094 A 190.325 190.325 0 0 1 243.08398 334.58203 L 243.08203 334.58008 C 237.87704 331.21708 231.46626 326.76062 222.69727 319.39062 C 213.32927 311.51563 202.78541 301.51405 191.35742 289.66406 C 184.68743 282.75807 178.09326 275.62074 171.19727 267.84375 C 164.92027 260.77476 156.21104 250.74455 150.37305 243.10156 C 144.25005 235.09457 139.83554 228.33359 136.06055 221.18359 L 135.68359 220.45312 C 131.4636 212.31913 127.47684 204.63522 118.96484 191.36523 C 116.44485 187.43724 113.7542 183.32661 110.9082 178.97461 C 103.17121 167.14462 95.170009 154.91296 89.041016 144.04297 C 88.481016 143.05997 87.917468 142.0757 87.355469 141.0957 C 85.593471 138.02471 83.771123 134.84708 82.203125 131.83008 C 81.188126 129.87708 80.430125 128.20347 79.953125 126.85547 C 78.831126 123.67247 79.145657 122.18236 79.597656 120.81836 C 80.000656 119.65536 80.555579 118.66233 81.142578 117.61133 C 82.514577 115.14733 83.934812 112.60184 83.757812 107.46484 C 83.377813 98.667853 79.994888 84.555662 77.212891 75.138672 C 76.028892 71.249676 74.690483 67.436043 73.396484 63.748047 C 73.031485 62.706048 72.6695 61.67153 72.3125 60.644531 C 72.0505 59.887532 71.796875 59.144109 71.546875 58.412109 C 70.245876 54.609113 69.016358 51.014028 67.318359 47.457031 C 66.44936 45.629033 65.474249 43.792623 64.53125 42.015625 C 62.182252 37.589629 59.754452 33.01262 58.814453 28.265625 C 58.117454 24.822628 58.185564 19.915341 59.976562 17.277344 C 60.622562 16.327345 61.435485 15.773765 62.396484 15.634766 C 64.340482 15.331766 66.478877 16.125579 68.546875 16.892578 L 68.724609 16.958984 C 69.619608 17.290984 70.530157 17.646282 71.410156 17.988281 C 73.203154 18.688281 75.060111 19.412141 76.912109 19.994141 C 80.768106 21.204139 84.191909 21.721219 87.378906 21.574219 C 88.008906 21.544219 88.640548 21.530625 89.310547 21.515625 C 91.723544 21.461625 94.21944 21.405202 96.523438 20.658203 C 101.75743 18.927205 104.03734 11.907635 103.52734 6.1816406 C 103.32834 3.9916428 102.85352 1.9499981 102.22852 0 L 101.75977 0 z M 103.76172 0 C 104.94172 2.8989971 105.95189 5.9478471 106.33789 9.3398438 C 106.67989 12.396841 106.28019 15.670315 105.24219 18.320312 C 104.42319 20.40831 102.81831 23.120829 99.820312 24.173828 C 97.756315 24.883827 95.490779 25.026016 93.300781 25.166016 C 92.637782 25.208016 91.951874 25.251547 91.296875 25.310547 C 88.137878 25.597547 84.77834 25.20814 81.027344 24.119141 C 79.120346 23.565141 77.204561 22.842531 75.351562 22.144531 C 74.554563 21.844532 73.731874 21.534187 72.921875 21.242188 L 72.632812 21.138672 C 70.573815 20.392673 68.444795 19.623657 66.466797 19.972656 C 65.393798 20.149656 64.497781 20.786235 63.800781 21.865234 C 62.706782 23.563233 62.273438 26.069612 62.273438 28.599609 C 62.273438 30.421608 62.499328 32.255642 62.861328 33.806641 C 63.921327 38.430636 66.255721 42.850957 68.511719 47.126953 C 69.406718 48.822951 70.33197 50.575314 71.167969 52.320312 C 73.005967 56.146309 74.356064 60.04202 75.789062 64.166016 C 76.050062 64.920015 76.317797 65.686798 76.591797 66.466797 C 76.976796 67.561796 77.369625 68.663392 77.765625 69.775391 C 79.082624 73.478387 80.443204 77.308316 81.658203 81.195312 C 84.7462 91.370302 88.206297 105.22843 88.654297 113.60742 C 88.864297 118.37742 87.632405 120.90556 86.441406 123.35156 C 85.884407 124.49456 85.359187 125.57266 84.992188 126.84766 C 84.575188 128.36765 84.303876 130.00833 85.546875 133.36133 C 86.052874 134.72133 86.824157 136.36277 87.910156 138.38477 C 89.776154 141.85776 91.99944 145.56153 94.148438 149.14453 C 94.713437 150.08453 95.277891 151.0278 95.837891 151.9668 C 102.24788 162.80479 110.52235 174.96462 118.52734 186.72461 C 121.36134 190.88861 124.03736 194.82057 126.56836 198.60156 C 130.41436 204.39956 134.76585 210.99569 137.71484 215.92969 C 139.81384 219.43968 141.32892 222.3281 142.79492 225.12109 C 143.61892 226.68909 144.39449 228.17272 145.27148 229.76172 C 149.06448 236.60371 153.40099 243.04068 159.33398 250.63867 C 163.90098 256.49267 170.92304 264.65454 180.20703 274.89453 C 187.15702 282.57152 193.79977 289.62032 200.50977 296.44531 C 212.00575 308.1553 222.5972 318.0561 231.99219 325.87109 C 236.16218 329.33809 239.81899 332.17813 243.08398 334.57812 A 359.643 359.643 0 0 0 247.61719 337.44922 L 247.4668 337.71094 C 251.28979 340.36093 254.52578 342.3957 257.42578 344.2207 L 257.53516 344.0332 L 257.5332 344.0332 C 256.3072 343.1842 255.02473 342.27492 253.67773 341.29492 C 255.08173 342.19792 256.40411 343.02931 257.66211 343.82031 A 471.755 471.755 0 0 1 253.67773 341.29102 C 248.21774 337.77902 241.49333 333.1679 232.27734 325.50391 C 222.89335 317.69891 212.31211 307.80932 200.82812 296.11133 A 712.078 712.078 0 0 1 180.53906 274.57031 C 171.26207 264.33932 164.2465 256.18679 159.6875 250.3418 C 153.77051 242.7648 149.44506 236.34438 145.66406 229.52539 C 144.79106 227.94239 144.01536 226.46348 143.19336 224.89648 C 141.72436 222.09749 140.20461 219.20264 138.09961 215.68164 C 135.14561 210.74065 130.79236 204.13403 126.94336 198.33203 A 1860.77 1860.77 0 0 0 118.90039 186.45312 C 110.9004 174.69914 102.6266 162.54569 96.224609 151.7207 C 95.66461 150.7807 95.101156 149.83844 94.535156 148.89844 C 92.389158 145.32044 90.169592 141.6202 88.308594 138.1582 C 87.234595 136.15621 86.468656 134.53136 85.972656 133.19336 C 84.778657 129.97436 85.034641 128.41647 85.431641 126.98047 C 85.78564 125.74847 86.30161 124.6865 86.849609 123.5625 C 88.065608 121.0645 89.323375 118.48193 89.109375 113.58594 C 88.658375 105.16095 85.189747 91.257677 82.09375 81.054688 C 80.874751 77.156691 79.510405 73.322231 78.191406 69.615234 A 610.444 610.444 0 0 1 76.21875 64.007812 C 74.781751 59.870817 73.424217 55.963324 71.574219 52.111328 C 70.73422 50.35733 69.806155 48.602389 68.910156 46.900391 C 66.668158 42.652395 64.351686 38.260308 63.304688 33.695312 C 62.458688 30.089316 62.372689 24.93095 64.179688 22.126953 C 64.802687 21.161954 65.59597 20.591547 66.542969 20.435547 C 68.406967 20.107547 70.479377 20.857032 72.484375 21.582031 L 72.773438 21.6875 C 73.581437 21.9785 74.402266 22.287891 75.197266 22.587891 C 77.058264 23.28889 78.982252 24.013266 80.90625 24.572266 C 84.711246 25.677265 88.123894 26.073297 91.337891 25.779297 C 91.98789 25.721297 92.639079 25.679766 93.330078 25.634766 C 95.550076 25.494766 97.844799 25.347187 99.966797 24.617188 C 102.46879 23.737188 104.43806 21.621137 105.66406 18.494141 C 106.73006 15.774143 107.14106 12.418153 106.78906 9.2851562 C 106.40506 5.9051596 105.41591 2.8749971 104.25391 0 L 103.76172 0 z M 308.93359 0 C 310.65859 4.3249957 312.01766 9.1155984 313.34766 13.808594 C 313.77166 15.305592 314.21044 16.851845 314.64844 18.339844 C 317.52843 28.011834 320.296 37.4779 322.5 46.962891 C 323.48 51.156886 324.01525 55.28816 324.53125 59.285156 C 324.97825 62.737153 325.44059 66.306222 326.18359 69.824219 C 327.18459 74.565214 330.62524 78.234816 334.36523 81.882812 C 341.24323 88.605806 349.41582 96.760775 357.88281 106.25977 C 376.48279 127.21374 395.43284 149.73371 408.04883 172.42969 C 416.31482 187.36367 422.67427 204.30141 426.94727 222.77539 C 430.93126 239.52837 435.75736 254.84063 454.52734 272.59961 C 462.15634 279.7806 471.36011 285.78891 483.49609 291.50391 C 494.31608 296.5989 506.17067 300.85629 518.72266 305.36328 C 521.50865 306.36328 524.38958 307.39736 527.26758 308.44336 C 529.49358 309.26636 531.738 310.07505 534 310.87305 L 534 309.85352 A 496.694 496.694 0 0 1 527.58008 307.5332 C 524.69908 306.4852 521.81629 305.45022 519.0293 304.44922 C 493.63132 295.33023 471.69623 287.4567 455.15625 271.88672 C 436.58027 254.31074 431.80146 239.14381 427.85547 222.54883 C 423.56147 203.98885 417.17037 186.9642 408.85938 171.94922 C 396.19939 149.17024 377.20829 126.60145 358.57031 105.60547 C 350.08532 96.083478 341.89876 87.916634 335.00977 81.181641 C 331.37977 77.639644 328.04361 74.091136 327.09961 69.619141 C 326.36361 66.139144 325.90494 62.5892 325.46094 59.158203 C 324.94094 55.137207 324.40216 50.980277 323.41016 46.738281 C 321.19816 37.226291 318.42697 27.743584 315.54297 18.058594 C 315.10597 16.577595 314.66814 15.031108 314.24414 13.537109 C 312.94214 8.949114 311.6164 4.2709957 309.94141 0 L 308.93359 0 z M 316.17383 0 C 317.15883 2.7639972 318.05927 5.6165497 318.94727 8.4355469 A 404.6 404.6 0 0 0 320.42578 13.078125 C 323.89878 23.610114 326.98547 33.101056 329.60547 42.623047 C 330.78547 46.887043 331.56055 51.150488 332.31055 55.271484 C 333.00355 59.081481 333.71814 63.020191 334.74414 66.867188 C 336.11014 71.994182 340.30905 75.992112 343.37305 78.912109 C 352.97004 88.0681 361.59434 96.870275 369.73633 105.82227 C 388.98631 127.06324 408.58073 149.84876 421.51172 172.55273 C 429.99771 187.50272 436.49868 204.33002 441.38867 224 C 443.42567 231.97799 445.79519 240.50581 450.36719 249.3418 C 455.31218 258.89879 462.32007 267.70282 471.78906 276.25781 C 488.17205 291.0008 510.25002 299.43279 534 307.55078 L 534 306.52148 C 510.45502 298.46649 488.59014 290.08147 472.41016 275.52148 C 452.10718 257.1785 446.76273 241.22389 442.30273 223.75391 C 437.39274 203.99793 430.85716 187.08758 422.32617 172.05859 C 409.34818 149.27162 389.71276 126.43728 370.42578 105.1543 C 362.26779 96.184306 353.62962 87.36535 344.01562 78.193359 C 340.14963 74.513363 336.8523 71.099417 335.6543 66.607422 C 334.6403 62.800426 333.92728 58.881793 333.23828 55.091797 C 332.48428 50.948801 331.70662 46.663464 330.51562 42.355469 C 327.88963 32.813478 324.79831 23.307661 321.32031 12.763672 A 447.974 447.974 0 0 1 319.84375 8.1347656 C 318.98975 5.4207683 318.12464 2.6739973 317.18164 0 L 316.17383 0 z M 323.49609 0 C 323.83609 0.96999903 324.17381 1.9382978 324.50781 2.9042969 A 486.437 486.437 0 0 0 326.12891 7.5371094 C 329.8259 17.789099 333.65078 28.389245 336.92578 38.865234 C 338.23578 43.03823 339.20744 47.242645 340.14844 51.306641 C 341.03544 55.133637 341.95272 59.08841 343.13672 62.941406 C 344.77572 68.278401 348.93733 72.141785 352.61133 75.550781 C 361.55732 83.862773 370.22257 92.537369 379.10156 102.06836 C 398.46154 122.92434 420.30608 147.2086 434.53906 171.51758 C 440.14906 181.12657 448.45015 197.14759 455.74414 225.22656 C 457.98214 233.61755 460.75422 242.64217 465.82422 251.78516 C 471.38421 261.81215 479.14765 270.9786 489.55664 279.80859 C 498.27263 287.17459 508.62483 293.28874 522.13281 299.05273 C 525.99281 300.69873 529.951 302.24824 534 303.74023 L 534 302.69141 A 251.471 251.471 0 0 1 522.49609 298.14062 C 509.07611 292.41663 498.8031 286.34987 490.16211 279.04688 C 479.84512 270.29588 472.15529 261.21787 466.6543 251.29688 C 461.6363 242.24888 458.88801 233.29279 456.66602 224.9668 C 453.15802 211.46381 447.13241 191.17779 435.35742 171.00781 C 421.07444 146.61384 399.18895 122.27874 379.79297 101.38477 C 370.89698 91.835775 362.21394 83.146351 353.25195 74.818359 C 349.66896 71.493363 345.60587 67.725526 344.04688 62.644531 C 342.87388 58.824535 341.96208 54.886121 341.08008 51.078125 C 340.13408 46.994129 339.15594 42.772449 337.83594 38.564453 C 334.55394 28.068464 330.72539 17.456255 327.02539 7.1972656 C 326.47939 5.6732671 325.93525 4.0962641 325.40625 2.5722656 C 325.11125 1.7162665 324.81367 0.85899914 324.51367 0 L 323.49609 0 z M 331.0918 0 C 331.4638 0.98599901 331.83784 1.9733135 332.21484 2.9453125 L 332.60938 3.9648438 C 336.34437 13.530834 340.2043 23.420182 343.6543 33.201172 C 345.1383 37.395168 346.33233 41.661114 347.48633 45.787109 C 348.66133 49.989105 349.87677 54.334254 351.38477 58.53125 C 353.26676 63.772245 357.31552 67.450769 361.22852 71.009766 C 370.22551 79.201757 379.44888 88.296557 389.42188 98.810547 C 411.21885 121.87352 433.71483 146.48493 448.25781 171.50391 C 459.2848 190.53289 465.26611 209.71372 469.66211 225.9707 C 471.81111 233.7307 474.75555 242.95335 480.31055 252.52734 C 486.06154 262.44233 493.91623 271.54085 504.32422 280.33984 C 512.49221 287.22484 522.04101 293.06399 534 298.45898 L 534 297.36523 C 522.30501 292.05824 512.94554 286.31445 504.93555 279.56445 C 481.53157 259.77647 474.93675 241.38125 470.59375 225.69727 C 466.17975 209.37928 460.17388 190.11826 449.08789 170.98828 C 434.49191 145.87731 411.95126 121.21731 390.11328 98.111328 C 380.12229 87.579339 370.88218 78.468757 361.86719 70.259766 C 358.04319 66.782769 354.08997 63.187589 352.29297 58.183594 C 350.79697 54.020598 349.58601 49.693761 348.41602 45.509766 C 347.25802 41.36777 346.06045 37.083418 344.56445 32.857422 C 341.11046 23.061432 337.24581 13.162834 333.50781 3.5898438 L 333.10938 2.5722656 C 332.78138 1.7242665 332.45591 0.86299914 332.12891 0 L 331.0918 0 z M 339.04492 0 C 342.84992 9.0639909 346.75938 18.403119 350.35938 27.662109 C 351.93437 31.694105 353.27431 35.828176 354.57031 39.826172 C 356.00231 44.242167 357.48358 48.810364 359.26758 53.193359 C 361.35558 58.330354 365.47213 61.9893 369.45312 65.529297 L 369.82227 65.855469 C 378.52326 73.606461 387.66123 82.52459 399.44922 94.767578 C 423.21319 119.53655 445.77483 143.87562 460.63281 169.30859 C 472.0128 188.83757 477.87929 208.18884 482.48828 224.79883 C 484.64328 232.38482 487.91591 242.40554 494.12891 252.64453 C 500.4429 263.05152 509.00479 272.5199 520.30078 281.58789 C 524.59778 285.03089 529.178 288.12246 534 290.93945 L 534 289.77344 C 529.394 287.05644 525.01339 284.08306 520.90039 280.78906 C 509.6944 271.79407 501.20807 262.41236 494.95508 252.10938 C 488.80708 241.97439 485.56378 232.03857 483.42578 224.51758 C 478.80179 207.84959 472.91169 188.42109 461.4707 168.78711 C 446.55672 143.25813 423.95055 118.87257 400.14258 94.058594 C 388.33459 81.795606 379.18193 72.861742 370.46094 65.09375 L 370.0918 64.765625 C 366.1958 61.302628 362.16797 57.720729 360.16797 52.802734 C 358.39797 48.453739 356.92209 43.906808 355.49609 39.507812 C 354.1951 35.495817 352.84862 31.345152 351.26562 27.285156 C 347.71363 18.152165 343.86632 8.9449911 340.11133 0 L 339.04492 0 z M 347.33789 0 C 350.44489 6.953993 353.57755 14.034273 356.56055 21.072266 C 358.19955 24.930262 359.65741 28.913676 361.06641 32.763672 C 362.7684 37.413667 364.52838 42.223645 366.60938 46.806641 C 368.85937 51.763636 372.90064 55.293988 376.80664 58.708984 L 377.40234 59.230469 C 388.12833 68.635459 398.71617 79.277275 407.66016 88.447266 C 428.67414 110.07124 454.8268 136.98181 471.30078 164.67578 C 482.96677 184.33376 488.83566 203.50881 493.84766 221.4668 C 496.06665 229.22179 499.4274 239.46112 505.77539 249.91211 C 512.17238 260.4421 520.83764 270.05484 532.26562 279.29883 C 532.83762 279.76083 533.415 280.21792 534 280.66992 L 534 279.39062 C 533.622 279.09463 533.24605 278.79514 532.87305 278.49414 C 521.53606 269.32415 512.94827 259.79713 506.61328 249.36914 C 503.31228 243.93515 498.98582 235.81967 494.79883 221.17969 C 489.76883 203.15771 483.87452 183.90761 472.14453 164.14062 C 455.60855 136.34265 429.41035 109.38363 408.35938 87.722656 C 399.40238 78.537665 388.79496 67.877209 378.04297 58.449219 L 377.44531 57.927734 C 373.61932 54.584738 369.66286 51.126089 367.50586 46.371094 C 365.43986 41.825098 363.68523 37.032386 361.99023 32.400391 C 360.57524 28.537394 359.11584 24.544152 357.46484 20.660156 C 354.54085 13.762163 351.47178 6.8199932 348.42578 0 L 347.33789 0 z M 355.71875 0 C 357.67975 4.1659958 359.63778 8.3610667 361.55078 12.539062 C 363.33478 16.427059 364.96978 20.454613 366.55078 24.349609 C 368.59378 29.381604 370.70721 34.586536 373.1582 39.519531 C 375.5122 44.259527 379.43071 47.643066 383.2207 50.914062 L 384.04297 51.626953 C 393.73596 60.040945 403.313 69.487949 414.70898 81.085938 L 415.09961 81.486328 C 437.90859 104.7783 463.76005 131.17742 480.45703 158.90039 C 493.12102 179.97037 499.05808 201.18539 503.83008 218.23438 C 507.25007 230.13836 511.22666 239.30785 516.72266 247.96484 C 521.35865 255.26484 527.06801 262.09329 534 268.61328 L 534 267.21875 C 527.43301 260.94776 521.99664 254.38848 517.55664 247.39648 C 512.11665 238.82849 508.17806 229.74435 504.78906 217.94336 C 500.00007 200.83738 494.04267 179.54745 481.30469 158.35547 C 464.5447 130.5285 438.65071 104.08393 415.80273 80.751953 L 415.41016 80.351562 C 403.99617 68.735574 394.40158 59.272882 384.68359 50.837891 L 383.85938 50.123047 C 380.14638 46.91605 376.30787 43.602824 374.04688 39.048828 C 371.61488 34.150833 369.50765 28.963214 367.47266 23.949219 C 365.88666 20.043223 364.24812 16.005699 362.45312 12.095703 C 360.60813 8.0657072 358.72108 4.020996 356.83008 0 L 355.71875 0 z M 364.89844 0 A 1464.55 1464.55 0 0 1 367.53516 5.3457031 C 369.24115 8.8186997 370.8493 12.438503 372.4043 15.9375 C 374.67529 21.050495 377.02533 26.337067 379.73633 31.289062 C 382.16933 35.735058 385.91316 38.915191 389.53516 41.992188 L 390.33984 42.677734 C 400.96783 51.750725 411.42004 62.146589 422.08203 72.892578 L 423.77539 74.605469 C 447.42637 98.525445 474.2346 125.63611 491.14258 154.20508 C 503.22857 174.68206 508.9146 195.13366 513.93359 213.18164 C 517.24159 224.79163 521.32044 234.21676 526.77344 242.84375 A 101.99 101.99 0 0 0 534 252.85938 L 534 251.23242 A 100.678 100.678 0 0 1 527.61914 242.27539 C 522.22215 233.7374 518.18134 224.39757 514.90234 212.89258 C 509.86735 194.7836 504.16189 174.26009 492.00391 153.66211 C 475.02992 124.98214 448.17445 97.823304 424.48047 73.861328 L 422.78516 72.148438 C 412.10617 61.385448 401.63946 50.970038 390.98047 41.873047 C 390.71247 41.643047 390.44478 41.4155 390.17578 41.1875 C 386.46178 38.033503 382.95233 35.054339 380.61133 30.777344 C 377.92133 25.863349 375.58131 20.596901 373.32031 15.503906 C 371.76031 11.99391 370.15155 8.3669496 368.43555 4.8769531 A 995.835 995.835 0 0 0 366.0332 0 L 364.89844 0 z M 375.16992 0 C 376.03692 1.7399983 376.88956 3.4851267 377.72656 5.203125 C 380.47256 10.829119 383.30946 16.647302 386.56445 22.029297 C 389.08645 26.201293 392.72805 29.1968 396.24805 32.091797 C 396.74105 32.496796 397.23456 32.904454 397.72656 33.314453 C 408.40655 42.222444 418.76929 52.535136 429.73828 63.453125 L 432.56836 66.277344 C 456.72534 90.39632 484.10686 117.7345 501.46484 146.73047 C 513.49683 166.87345 518.96391 186.30277 524.25391 205.09375 C 524.57191 206.22875 524.89194 207.35928 525.21094 208.48828 C 527.58394 216.67827 530.44 223.87065 534 230.55664 L 534 228.32617 C 530.886 222.19318 528.33745 215.60445 526.18945 208.18945 A 2817.08 2817.08 0 0 1 525.23438 204.80078 C 519.92738 185.9408 514.43702 166.44076 502.33203 146.17578 C 484.90705 117.06581 457.47732 89.680507 433.27734 65.519531 L 430.49609 62.742188 L 430.44727 62.693359 C 419.46128 51.75937 409.08418 41.429179 398.36719 32.492188 C 397.87519 32.080188 397.37781 31.672625 396.88281 31.265625 C 393.27082 28.295628 389.85969 25.489699 387.42969 21.470703 C 384.19969 16.128708 381.37267 10.332557 378.63867 4.7265625 C 377.87867 3.1665641 377.10436 1.5829984 376.31836 0 L 375.16992 0 z M 386.53711 0 C 388.74811 4.045996 391.05985 8.0708944 393.58984 11.837891 C 396.15584 15.653887 399.63786 18.404409 403.00586 21.066406 C 403.64386 21.569406 404.30236 22.089376 404.94336 22.609375 C 415.31935 31.009367 425.34976 40.851542 435.96875 51.269531 L 438.05078 53.3125 C 439.23878 54.482499 440.43567 55.656845 441.63867 56.839844 C 466.55065 81.329819 494.78708 109.08645 512.66406 138.73242 C 523.59905 156.9034 529.11 174.5252 534 191.61719 L 534 187.88086 C 529.32 171.79688 523.81696 155.24286 513.54297 138.17188 C 495.59499 108.4099 467.30658 80.601335 442.34961 56.068359 C 441.14561 54.886361 439.95072 53.709061 438.76172 52.539062 L 436.67773 50.498047 C 426.04075 40.061057 415.99411 30.202476 405.57812 21.771484 A 213.188 213.188 0 0 0 403.63086 20.222656 C 400.17386 17.489659 396.9085 14.908512 394.4375 11.228516 C 392.0395 7.6585192 389.83465 3.8459962 387.72266 0 L 386.53711 0 z M 400.17969 0 C 400.37769 0.27499973 400.57534 0.55031277 400.77734 0.8203125 C 403.34634 4.2413091 406.65257 6.7269087 409.85156 9.1289062 C 410.66356 9.7389056 411.50241 10.368907 412.31641 11.003906 C 422.5934 19.039898 432.50406 28.615916 442.99805 38.753906 C 444.18505 39.899905 445.37541 41.048314 446.56641 42.195312 C 447.9944 43.577311 449.43577 44.968189 450.88477 46.367188 C 476.66774 71.265163 505.8906 99.486265 524.39258 129.86523 C 528.17457 136.08823 531.312 142.25057 534 148.35156 L 534 145.78906 A 158.194 158.194 0 0 0 525.27539 129.29297 C 506.70141 98.795999 477.42468 70.523053 451.5957 45.580078 L 447.27734 41.408203 C 446.08634 40.260204 444.89794 39.113796 443.71094 37.966797 C 433.19695 27.809807 423.2653 18.214523 412.94531 10.144531 A 166.548 166.548 0 0 0 410.46484 8.2578125 C 407.18085 5.790815 404.07856 3.4601998 401.60156 0.15820312 L 401.48633 0 L 400.17969 0 z M 421.57812 0 C 431.29112 7.5239925 441.06135 16.797071 450.52734 25.789062 C 452.11134 27.293061 453.69711 28.802689 455.28711 30.304688 C 456.93711 31.871686 458.6042 33.449064 460.2832 35.039062 C 485.86918 59.269038 514.72202 86.590342 534 116.19531 L 534 114.25586 C 514.66402 85.056889 486.24307 58.145304 460.99609 34.236328 C 459.3171 32.64633 457.65005 31.067998 455.99805 29.5 C 454.41005 27.999002 452.82323 26.49228 451.24023 24.988281 C 442.11724 16.32329 432.71312 7.3919926 423.32812 0 L 421.57812 0 z M 444.88281 0 C 449.42281 4.0519959 453.93391 8.2601604 458.37891 12.410156 C 460.2809 14.185154 462.24564 16.020502 464.18164 17.8125 C 466.04164 19.541498 467.9205 21.282111 469.8125 23.037109 C 491.34148 43.001089 515.08502 65.028664 534 88.806641 L 534 87.068359 C 515.17402 63.625383 491.76842 41.92073 470.52344 22.21875 C 468.63144 20.464752 466.75258 18.723139 464.89258 16.994141 A 2037.489 2037.489 0 0 1 459.09375 11.59375 C 454.94775 7.7237539 450.74276 3.8009962 446.50977 0 L 444.88281 0 z M 467.83594 0 C 469.62394 1.6389984 471.44228 3.3045954 473.23828 4.9335938 C 475.32128 6.8285919 477.42783 8.7380644 479.54883 10.664062 C 497.47181 26.926046 516.87102 44.534691 534 63.388672 L 534 61.763672 C 517.03202 43.19869 497.92875 25.862109 480.25977 9.828125 A 5535.863 5535.863 0 0 1 473.94922 4.0976562 C 472.45722 2.7466576 470.94808 1.3669986 469.45508 0 L 467.83594 0 z M 491.58008 0 C 505.48306 12.343988 520.14901 25.437545 534 39.269531 L 534 37.712891 C 520.67101 24.453904 506.62408 11.880988 493.24609 0 L 491.58008 0 z M 515.98828 0 C 521.98528 5.2869947 528.02401 10.700193 534 16.242188 L 534 14.71875 A 964.663 964.663 0 0 0 517.67773 0 L 515.98828 0 z M 0 50.986328 L 0 52.185547 C 0.65699934 54.875544 1.6453134 57.862206 2.5703125 60.658203 C 2.8853122 61.616202 3.1847972 62.520438 3.4667969 63.398438 C 5.1577952 68.843432 7.2132207 74.763287 9.1992188 80.488281 C 12.362216 89.596272 15.633002 99.011539 17.625 107.01953 C 18.900999 112.14953 19.547829 116.52772 20.173828 120.76172 C 20.856827 125.38271 21.561939 130.16151 23.085938 135.9375 C 25.125935 143.49749 29.031865 153.0252 34.380859 163.49219 C 39.323854 173.19218 46.319837 184.99251 55.173828 198.5625 C 62.058821 209.12949 68.913007 218.85874 76.125 228.30273 C 83.552993 238.05972 98.279765 256.42159 113.46875 269.76758 C 125.84774 280.64757 133.48968 283.98483 138.76367 285.67383 L 138.84375 285.40625 C 133.59476 283.72325 125.98652 280.40168 113.64453 269.55469 C 98.473546 256.2227 83.758883 237.8789 76.337891 228.12891 C 69.129898 218.69092 62.278477 208.96729 55.396484 198.4043 C 46.547493 184.84331 39.556183 173.05332 34.617188 163.36133 C 29.277193 152.91134 25.380701 143.40132 23.345703 135.86133 C 21.824705 130.10133 21.119499 125.32979 20.4375 120.7168 C 19.811501 116.4768 19.165717 112.09121 17.886719 106.94922 C 15.889721 98.929227 12.616169 89.506569 9.4511719 80.392578 C 7.4651739 74.669584 5.4107014 68.752495 3.7207031 63.3125 C 3.4377034 62.432501 3.1392653 61.527358 2.8222656 60.568359 C 1.7702667 57.376363 0.63099937 53.933325 0 50.986328 z M 0 64.597656 L 0 65.453125 A 913.718 913.718 0 0 0 3.4003906 75.802734 C 6.5353875 85.230725 9.7796269 94.976868 11.640625 103.25586 C 12.766624 108.27585 13.304219 112.62032 13.824219 116.82031 C 14.397218 121.44231 14.988283 126.22108 16.363281 131.95508 C 18.453279 140.47907 22.668787 151.03548 28.550781 162.48047 C 38.782771 182.47545 53.098297 205.05376 68.863281 226.05273 C 82.030268 243.69072 96.30259 259.66306 108.01758 269.87305 C 120.53157 280.78604 128.19085 283.96081 133.46484 285.50781 L 133.53516 285.25195 C 128.28616 283.71195 120.66053 280.54896 108.18555 269.66797 C 96.483559 259.46898 82.226299 243.51265 69.070312 225.88867 C 53.314328 204.90069 39.004287 182.3355 28.779297 162.35352 C 22.907303 150.92653 18.699232 140.39462 16.615234 131.89062 C 15.245236 126.17063 14.653031 121.40015 14.082031 116.78516 C 13.560032 112.57916 13.02253 108.22735 11.894531 103.19336 C 10.030533 94.900368 6.7855281 85.148787 3.6445312 75.716797 C 2.4165325 72.027801 1.1599988 68.251653 0 64.597656 z M 0 78.044922 L 0 78.878906 C 2.2439978 86.076899 4.3241888 93.199209 5.6171875 99.533203 C 6.6431865 104.5532 7.0742348 108.92344 7.4902344 113.14844 C 7.9842339 118.16043 8.4941421 123.34385 9.9941406 129.71484 C 11.874139 137.50084 15.47074 146.91156 20.677734 157.68555 C 25.39573 167.46554 32.055665 179.27984 40.472656 192.79883 C 47.883649 204.71282 55.313414 215.64004 63.191406 226.20703 C 76.380393 243.96101 90.697621 259.99056 102.47461 270.18555 C 115.3196 281.31154 123.30246 284.33467 128.18945 285.63867 L 128.25195 285.39062 C 123.38696 284.09063 115.4388 281.08127 102.63281 269.98828 C 90.868824 259.80629 76.565659 243.79076 63.388672 226.05078 C 55.51568 215.49079 48.08668 204.56719 40.679688 192.6582 C 32.266696 179.14822 25.612433 167.3423 20.898438 157.57031 C 15.698443 146.81232 12.110373 137.42034 10.234375 129.65234 C 8.7393765 123.29935 8.2303276 118.12704 7.7363281 113.12305 C 7.3203285 108.89205 6.887374 104.51442 5.859375 99.482422 C 4.5193763 92.913428 2.3359977 85.505914 0 78.044922 z M 0 96.949219 L 0 98.419922 C 0.62999937 102.49392 0.90396901 106.18453 1.1679688 109.76953 C 1.5369684 114.75353 1.9160482 119.90718 3.2480469 126.20117 C 5.0600451 134.55416 9.0389588 145.25368 14.751953 157.13867 C 24.995943 178.57165 40.641658 203.98721 57.681641 226.86719 C 70.853627 244.65117 85.179293 260.66574 96.988281 270.80273 C 109.98827 281.97072 118.01969 284.8413 122.92969 286.0293 L 122.98242 285.79297 C 118.09543 284.60997 110.10161 281.74927 97.140625 270.61328 C 85.344637 260.48829 71.029127 244.48973 57.869141 226.71875 C 40.839158 203.85077 25.201834 178.44728 14.964844 157.0293 C 9.2608495 145.16131 5.2884669 134.48338 3.4804688 126.15039 C 2.1524701 119.8734 1.7722965 114.727 1.4042969 109.75 C 1.1082972 105.747 0.8029992 101.60821 0 96.949219 z M 0 135.00586 L 0 135.70703 C 2.004998 141.60203 4.6664407 148.09894 7.8984375 154.96094 C 18.274427 177.09692 33.315923 202.03738 50.253906 225.19336 C 58.040898 235.89335 73.565845 255.99455 90.048828 270.39453 C 100.69982 279.70452 109.47421 284.87125 117.6582 286.65625 L 117.70312 286.42969 C 109.55713 284.65269 100.81635 279.49883 90.193359 270.21484 C 73.727376 255.82986 58.213633 235.74472 50.431641 225.05273 C 33.748657 202.24276 18.319552 176.65935 8.1015625 154.85938 C 4.7575658 147.76238 2.024998 141.05685 0 135.00586 z M 0 150.21875 L 0 150.75391 C 0.31699968 151.46691 0.64065658 152.18416 0.97265625 152.91016 C 10.848646 174.65013 26.092079 200.45596 42.789062 223.71094 C 50.588055 234.62893 66.189939 255.18298 83.044922 270.16797 C 94.273911 280.15596 103.86334 285.82033 112.36133 287.48633 L 112.40039 287.26953 C 103.9404 285.61053 94.384536 279.96004 83.185547 269.99805 C 66.345564 255.02606 50.756883 234.48811 42.962891 223.57812 C 26.272907 200.33415 11.039959 174.54143 1.1679688 152.81445 C 0.76796915 151.93945 0.37899962 151.07475 0 150.21875 z M 0 163.21484 L 0 163.67773 C 9.98099 183.71471 22.899045 205.06983 37.082031 224.88281 C 44.874023 235.8138 60.470829 256.37951 77.382812 271.3125 C 88.750801 281.35549 98.44454 286.97242 107.01953 288.48242 L 107.05469 288.27344 C 98.516696 286.76944 88.855614 281.16838 77.515625 271.15039 C 60.618642 256.23141 45.033086 235.6808 37.246094 224.75781 C 22.983108 204.83283 9.99999 183.34782 0 163.21484 z M 0 175.51172 L 0 175.92188 C 9.005991 192.69486 19.811793 210.08431 31.300781 226.1543 C 39.084773 237.09429 54.678361 257.66961 71.652344 272.55859 C 83.158332 282.65658 92.963962 288.23447 101.62695 289.60547 L 101.65625 289.4082 C 93.030259 288.0422 83.255332 282.48124 71.777344 272.40625 C 54.818361 257.53126 39.23507 236.9701 31.455078 226.03711 C 19.90009 209.87413 9.034991 192.3737 0 175.51172 z M 0 187.29688 L 0 187.66797 A 472.861 472.861 0 0 0 23.597656 224.87109 C 31.730648 236.50408 48.035674 258.3422 65.847656 273.86719 C 77.491645 284.02518 87.406071 289.56741 96.164062 290.81641 L 96.191406 290.63086 C 87.469415 289.38786 77.580832 283.8576 65.964844 273.72461 C 48.167862 258.21162 31.873132 236.38871 23.744141 224.76172 A 472.418 472.418 0 0 1 0 187.29688 z M 0 198.70508 L 0 199.04297 A 475.61 475.61 0 0 0 15.853516 223.63672 C 22.405509 233.18671 29.558069 242.6247 36.539062 250.92969 C 44.675054 260.61268 52.560757 268.77727 59.96875 275.19727 C 71.586738 285.27426 81.903774 290.95317 90.634766 292.07617 L 90.65625 291.89844 C 81.957259 290.77944 71.66916 285.11454 60.076172 275.06055 C 52.03618 268.09355 35.620121 252.13617 15.994141 223.5332 A 474.176 474.176 0 0 1 0 198.70508 z M 0 209.73438 L 0 210.03711 A 465.277 465.277 0 0 0 9.6621094 224.69727 C 16.232103 234.30126 23.413741 243.78782 30.427734 252.13281 C 38.580726 261.8328 46.487601 270.00855 53.933594 276.43555 C 65.715582 286.61754 76.177306 292.30584 85.029297 293.33984 L 85.048828 293.17383 C 76.227837 292.14383 65.793144 286.46958 54.035156 276.30859 C 45.942164 269.3226 29.435902 253.31453 9.7949219 224.60156 A 466.28 466.28 0 0 1 0 209.73438 z M 0 220.36719 L 0 220.64258 A 450.788 450.788 0 0 0 3.6191406 226.00391 C 10.199134 235.6299 17.393882 245.12962 24.421875 253.47461 C 26.324137 255.73319 28.158996 257.61677 30.033203 259.70703 C 22.462639 251.2722 13.484825 240.16713 3.7421875 225.91406 A 448.124 448.124 0 0 1 0 220.36719 z M 0 230.5332 L 0 230.77539 C 9.2779907 243.99038 23.243594 262.10492 38.767578 276.12891 C 45.904571 282.5809 52.693319 287.52994 58.945312 290.83594 C 64.243307 293.63893 69.174567 295.27703 73.601562 295.70703 L 73.615234 295.56445 C 69.205239 295.13445 64.288807 293.50103 59.007812 290.70703 C 52.766819 287.40503 45.988368 282.46548 38.859375 276.02148 C 23.283391 261.9495 9.2729907 243.75419 0 230.5332 z M 0 240.10547 L 0 240.32031 C 8.8079912 252.1453 20.211778 265.94478 32.634766 277.13477 C 39.798758 283.59376 46.626741 288.54643 52.927734 291.85742 C 58.306729 294.68342 63.307067 296.32252 67.789062 296.72852 L 67.800781 296.5957 C 55.505794 295.4857 41.936741 285.34515 32.71875 277.03516 C 20.255762 265.81017 8.8169912 251.95446 0 240.10547 z M 0 249.0293 L 0 249.22266 C 7.6809923 258.91965 16.717822 269.18677 26.382812 277.88477 C 35.710803 286.28876 49.449841 296.52794 61.923828 297.58594 L 61.931641 297.46484 C 49.490653 296.41084 35.773975 286.18591 26.458984 277.79492 C 16.761994 269.06693 7.6959923 258.75629 0 249.0293 z M 0 257.24414 L 0 257.41016 C 6.1639938 264.69315 12.96896 271.98579 20.126953 278.42578 C 29.542944 286.90577 43.413591 297.22533 56.017578 298.23633 L 56.025391 298.12891 C 43.449403 297.11991 29.599303 286.81174 20.195312 278.34375 C 13.01032 271.87976 6.1829938 264.55513 0 257.24414 z M 30.285156 259.98438 C 36.338737 266.71605 42.283893 272.84544 47.917969 277.6875 C 59.821957 287.92949 70.396571 293.60845 79.351562 294.56445 L 79.367188 294.41016 C 70.443196 293.45716 59.893707 287.7894 48.011719 277.56641 C 43.973142 274.09517 37.837851 268.37451 30.285156 259.98438 z M 0 264.68359 L 0 264.82812 C 4.4169956 269.68212 9.0698642 274.39852 13.880859 278.72852 C 23.37585 287.27951 37.36495 297.67839 50.085938 298.65039 L 50.09375 298.55273 C 37.398763 297.58174 23.42735 287.19434 13.943359 278.65234 C 9.1083642 274.30235 4.4359956 269.56359 0 264.68359 z M 0 271.29297 L 0 271.41406 A 181.396 181.396 0 0 0 7.6757812 278.76172 C 25.000764 294.3737 37.075351 298.26811 44.152344 298.78711 L 44.158203 298.70117 C 31.358216 297.76217 17.283459 287.3043 7.7304688 278.69531 C 5.1004714 276.32731 2.5199975 273.84697 0 271.29297 z M 0 277.00195 L 0 277.10547 C 0.50799949 277.57547 1.0172974 278.04386 1.5292969 278.50586 C 18.961279 294.22284 31.111382 298.11909 38.234375 298.62109 L 38.240234 298.54688 C 31.130241 298.04688 18.995061 294.15125 1.5800781 278.44727 C 1.0500787 277.97027 0.52399948 277.48795 0 277.00195 z M 0 281.77539 L 0 281.85742 C 15.107985 294.40241 25.830382 297.68205 32.359375 298.12305 L 32.363281 298.06055 C 25.838288 297.62055 15.115985 294.33638 0 281.77539 z M 0 285.5332 L 0 285.59766 C 3.6029964 288.22265 7.1073784 290.42936 10.484375 292.19336 C 13.511758 293.77404 16.4181 294.99273 19.183594 295.8457 L 19.404297 295.91211 C 21.907294 296.66811 24.29483 297.12548 26.548828 297.27148 L 26.552734 297.2168 C 24.385305 297.07783 22.092671 296.64903 19.693359 295.94336 C 20.073359 295.98336 20.454079 296.01802 20.830078 296.04102 L 20.832031 295.99805 C 20.385669 295.97009 19.931948 295.92885 19.474609 295.87695 L 19.472656 295.87695 C 16.627163 295.02397 13.633192 293.77816 10.507812 292.14648 C 7.1238159 290.37849 3.6119964 288.1662 0 285.5332 z M 19.404297 295.91211 L 19.185547 295.84766 C 15.317551 295.36966 11.117824 294.05659 6.6738281 291.93359 A 68.865 68.865 0 0 1 0 288.25195 L 0 288.30078 A 68.936 68.936 0 0 0 6.6542969 291.97266 C 11.189292 294.13865 15.470301 295.45911 19.404297 295.91211 z M 263.94727 348.38477 A 226.09 226.09 0 0 0 267.20703 350.67969 L 267.30859 350.51367 L 267.30664 350.51367 A 555.26 555.26 0 0 1 263.94727 348.38477 z " />
</svg>
